<svg width="45" height="45" viewBox="0 0 45 45" fill="none" xmlns="http://www.w3.org/2000/svg">
<path d="M14.5306 4.9774L14.6276 5.7704C14.4746 5.7904 14.3206 5.8114 14.1676 5.8354C12.0056 6.18523 10.0152 7.2266 8.49515 8.8033C6.97506 10.38 6.00714 12.4071 5.73656 14.5804L5.71656 14.7404L4.92156 14.6574L4.94056 14.4934C5.23137 12.146 6.27561 9.95627 7.91657 8.25274C9.55753 6.54922 11.7067 5.42381 14.0416 5.0454C14.2046 5.0194 14.3666 4.9984 14.5306 4.9774ZM44.9566 40.9174C44.9573 41.1457 44.9128 41.3718 44.8256 41.5828C44.7384 41.7937 44.6103 41.9853 44.4486 42.1464L42.0976 44.4954C41.7714 44.8209 41.3294 45.0037 40.8686 45.0037C40.4078 45.0037 39.9658 44.8209 39.6396 44.4954L27.1486 32.0044L28.2086 30.9434L24.8536 27.5884C21.8466 29.9135 18.067 31.0061 14.2833 30.6442C10.4995 30.2823 6.99557 28.4931 4.48383 25.6402C1.97209 22.7873 0.641086 19.0849 0.761407 15.2858C0.881728 11.4867 2.44435 7.87599 5.13158 5.18776C7.81881 2.49953 11.4289 0.935566 15.228 0.81383C19.0271 0.692095 22.7299 2.02173 25.5838 4.5324C28.4376 7.04308 30.2282 10.5463 30.5915 14.33C30.9548 18.1136 29.8635 21.8936 27.5396 24.9014L30.8936 28.2554L31.9536 27.1934L44.4486 39.6884C44.6103 39.8495 44.7384 40.0411 44.8256 40.252C44.9128 40.463 44.9573 40.6891 44.9566 40.9174ZM15.7616 29.9104C18.5503 29.9104 21.2764 29.0835 23.5951 27.5341C25.9138 25.9848 27.7211 23.7827 28.7883 21.2062C29.8555 18.6298 30.1347 15.7948 29.5906 13.0596C29.0466 10.3245 27.7037 7.81212 25.7318 5.8402C23.7598 3.86828 21.2475 2.52538 18.5123 1.98133C15.7772 1.43728 12.9422 1.71651 10.3657 2.7837C7.78929 3.8509 5.58717 5.65813 4.03784 7.97686C2.48851 10.2956 1.66156 13.0217 1.66156 15.8104C1.6658 19.5487 3.15269 23.1326 5.79603 25.7759C8.43938 28.4193 12.0233 29.9062 15.7616 29.9104ZM28.7736 30.3774L30.3276 28.8214L27.0746 25.5684L25.5196 27.1234L28.7736 30.3774ZM44.1566 40.9174C44.1571 40.794 44.133 40.6718 44.0858 40.5578C44.0386 40.4438 43.9692 40.3403 43.8816 40.2534L31.9536 28.3254L28.2796 32.0044L40.2056 43.9304C40.3817 44.1057 40.6201 44.204 40.8686 44.204C41.117 44.204 41.3554 44.1057 41.5316 43.9304L43.8816 41.5804C43.969 41.4936 44.0384 41.3903 44.0856 41.2765C44.1328 41.1627 44.1569 41.0406 44.1566 40.9174Z" fill="#155197"/>
</svg>
