<svg version="1.1" id="Layer_1" xmlns="http://www.w3.org/2000/svg" xmlns:xlink="http://www.w3.org/1999/xlink" x="0px" y="0px"
	 width="100%" viewBox="0 0 103 103" enable-background="new 0 0 103 103" xml:space="preserve">
<path fill="#07BBB7" opacity="1.000000" stroke="none" 
	d="
M65.000000,104.000000 
	C56.979099,104.000000 48.958202,104.000000 40.805672,103.707077 
	C35.998943,101.321152 31.135323,99.564476 26.685183,97.070114 
	C14.803840,90.410492 6.985488,80.359039 2.926695,67.345566 
	C2.742271,66.754257 1.662663,66.442154 0.999999,66.000000 
	C1.000000,57.312435 1.000000,48.624874 1.275911,39.809620 
	C2.024623,39.051548 2.703203,38.489922 2.940144,37.780735 
	C8.932544,19.844997 20.415604,7.640649 39.110107,2.841345 
	C39.536224,2.731950 39.709034,1.635848 40.000000,1.000000 
	C48.020901,1.000000 56.041798,1.000000 64.191238,1.277455 
	C64.952347,2.027003 65.516640,2.714227 66.227440,2.939782 
	C84.901711,8.865603 97.340729,20.771891 102.158165,40.105766 
	C102.263977,40.530460 103.363838,40.707458 104.000000,41.000000 
	C104.000000,48.354252 104.000000,55.708500 103.702393,63.195206 
	C103.042671,63.667900 102.457947,63.949390 102.350403,64.356827 
	C97.280006,83.566429 85.383484,96.212074 66.325867,102.075829 
	C65.741852,102.255524 65.435699,103.338272 65.000000,104.000000 
M34.464405,27.023537 
	C34.381069,27.347857 34.297733,27.672176 34.100983,28.928114 
	C34.138786,46.615990 34.176594,64.303871 34.158623,82.487289 
	C34.158623,82.487289 34.503021,82.847931 34.503021,82.847931 
	C34.503021,82.847931 35.001480,82.833405 35.927376,82.968475 
	C40.848450,82.968475 45.769520,82.968475 51.244728,82.968475 
	C51.244728,74.937668 51.244728,67.552269 51.244728,59.809044 
	C58.737179,59.809044 65.665070,59.809044 72.640930,59.809044 
	C72.640930,56.036968 72.640930,52.662018 72.640930,49.000080 
	C67.645538,49.000080 63.006454,49.000759 58.367374,48.999928 
	C50.877827,48.998581 50.872635,48.998058 51.013290,41.745602 
	C51.028477,40.962421 51.147346,40.181248 51.265743,38.872932 
	C59.601055,38.872932 67.655617,38.872932 75.665009,38.872932 
	C75.665009,34.566002 75.665009,30.825323 75.665009,26.972708 
	C61.887020,26.972708 48.442707,26.972708 34.464405,27.023537 
z"/>
<path fill="#000000" opacity="1.000000" stroke="none" 
	d="
M65.468658,104.000000 
	C65.435699,103.338272 65.741852,102.255524 66.325867,102.075829 
	C85.383484,96.212074 97.280006,83.566429 102.350403,64.356827 
	C102.457947,63.949390 103.042671,63.667900 103.702393,63.663826 
	C104.000000,77.259056 104.000000,90.518105 104.000000,104.000000 
	C91.313309,104.000000 78.625313,104.000000 65.468658,104.000000 
z"/>
<path fill="#000000" opacity="1.000000" stroke="none" 
	d="
M104.000000,40.531342 
	C103.363838,40.707458 102.263977,40.530460 102.158165,40.105766 
	C97.340729,20.771891 84.901711,8.865603 66.227440,2.939782 
	C65.516640,2.714227 64.952347,2.027003 64.659889,1.277455 
	C77.927582,1.000000 90.855156,1.000000 104.000000,1.000000 
	C104.000000,14.020089 104.000000,27.041386 104.000000,40.531342 
z"/>
<path fill="#000000" opacity="1.000000" stroke="none" 
	d="
M0.999999,66.468658 
	C1.662663,66.442154 2.742271,66.754257 2.926695,67.345566 
	C6.985488,80.359039 14.803840,90.410492 26.685183,97.070114 
	C31.135323,99.564476 35.998943,101.321152 40.337021,103.707077 
	C27.074316,104.000000 14.148630,104.000000 1.000000,104.000000 
	C1.000000,91.646667 1.000000,79.291992 0.999999,66.468658 
z"/>
<path fill="#000000" opacity="1.000000" stroke="none" 
	d="
M39.531342,1.000000 
	C39.709034,1.635848 39.536224,2.731950 39.110107,2.841345 
	C20.415604,7.640649 8.932544,19.844997 2.940144,37.780735 
	C2.703203,38.489922 2.024623,39.051548 1.275911,39.340965 
	C1.000000,26.405743 1.000000,13.811486 1.000000,1.000000 
	C13.686735,1.000000 26.374710,1.000000 39.531342,1.000000 
z"/>
<path fill="#111111" opacity="1.000000" stroke="none" 
	d="
M34.214397,81.991745 
	C34.176594,64.303871 34.138786,46.615990 34.312325,28.310677 
	C34.723530,27.480488 34.881775,27.240311 34.998398,26.972708 
	C48.442707,26.972708 61.887020,26.972708 75.665009,26.972708 
	C75.665009,30.825323 75.665009,34.566002 75.665009,38.872932 
	C67.655617,38.872932 59.601055,38.872932 51.265743,38.872932 
	C51.147346,40.181248 51.028477,40.962421 51.013290,41.745602 
	C50.872635,48.998058 50.877827,48.998581 58.367374,48.999928 
	C63.006454,49.000759 67.645538,49.000080 72.640930,49.000080 
	C72.640930,52.662018 72.640930,56.036968 72.640930,59.809044 
	C65.665070,59.809044 58.737179,59.809044 51.244728,59.809044 
	C51.244728,67.552269 51.244728,74.937668 51.244728,82.968475 
	C45.769520,82.968475 40.848450,82.968475 35.351494,82.744171 
	C34.613903,82.316887 34.426830,82.140846 34.214397,81.991745 
z"/>
<path fill="#0F2626" opacity="1.000000" stroke="none" 
	d="
M34.731400,26.998123 
	C34.881775,27.240311 34.723530,27.480488 34.369034,27.844868 
	C34.297733,27.672176 34.381069,27.347857 34.731400,26.998123 
z"/>
<path fill="#0F2626" opacity="1.000000" stroke="none" 
	d="
M34.186508,82.239517 
	C34.426830,82.140846 34.613903,82.316887 34.888550,82.676636 
	C35.001480,82.833405 34.503021,82.847931 34.503021,82.847931 
	C34.503021,82.847931 34.158623,82.487289 34.186508,82.239517 
z"/>
</svg>