<svg version="1.1" id="Layer_1" xmlns="http://www.w3.org/2000/svg" xmlns:xlink="http://www.w3.org/1999/xlink" x="0px" y="0px"
	 width="100%" viewBox="0 0 103 103" enable-background="new 0 0 103 103" xml:space="preserve">
<path fill="#DD6368" opacity="1.000000" stroke="none" 
	d="
M104.000000,40.000000 
	C104.000000,49.687561 104.000000,59.375122 103.737473,69.187195 
	C103.024193,69.770447 102.347229,70.150314 102.155769,70.699455 
	C97.307159,84.606361 88.491020,94.985474 75.157349,101.459923 
	C74.242744,101.904030 73.710220,103.134987 73.000000,104.000000 
	C59.979107,104.000000 46.958210,104.000000 33.808102,103.754677 
	C33.228775,103.044518 32.863056,102.406448 32.316269,102.140068 
	C16.874577,94.617340 6.563095,82.958656 2.838111,65.893890 
	C2.748161,65.481819 1.635602,65.292961 1.000000,65.000000 
	C1.000000,58.645603 1.000000,52.291203 1.299263,45.804390 
	C2.030617,45.186718 2.748202,44.755909 2.852657,44.208172 
	C4.958319,33.166691 10.442067,24.160374 18.774324,16.670664 
	C31.758032,4.999846 47.031372,0.873620 63.740284,4.538667 
	C82.324623,8.615082 95.189316,20.175816 102.012047,38.164398 
	C102.298271,38.919037 103.320602,39.394485 104.000000,40.000000 
M77.502396,46.000118 
	C89.064865,34.727245 88.511581,35.780903 77.538147,24.963951 
	C73.639305,21.120705 71.332581,21.131144 67.435242,25.106909 
	C62.799343,29.836090 58.329647,34.728203 53.344078,40.020920 
	C49.495331,36.062466 46.417336,32.830009 43.267319,29.669331 
	C33.485291,19.854166 33.474686,19.864742 23.609159,29.881020 
	C19.251692,34.305073 19.224211,36.712627 23.690228,41.175011 
	C28.240370,45.721455 32.884647,50.173687 38.019276,55.186085 
	C34.195171,58.741768 30.948708,61.599613 27.883358,64.640060 
	C17.862761,74.579262 17.888138,74.604843 27.953798,84.356972 
	C32.543728,88.803940 34.710213,88.841438 39.204197,84.269753 
	C43.710609,79.685417 48.098595,74.984657 52.717793,70.147141 
	C56.451000,73.910645 59.368458,76.870010 62.305714,79.809593 
	C72.660309,90.172386 72.662880,90.169815 82.814102,79.686073 
	C86.940689,75.424324 87.032974,73.366409 82.810226,69.250053 
	C78.071953,64.631149 73.152199,60.198410 67.506584,54.934231 
	C71.304451,51.560928 74.153038,49.030792 77.502396,46.000118 
z"/>
<path fill="#000000" opacity="1.000000" stroke="none" 
	d="
M104.000000,39.531342 
	C103.320602,39.394485 102.298271,38.919037 102.012047,38.164398 
	C95.189316,20.175816 82.324623,8.615082 63.740284,4.538667 
	C47.031372,0.873620 31.758032,4.999846 18.774324,16.670664 
	C10.442067,24.160374 4.958319,33.166691 2.852657,44.208172 
	C2.748202,44.755909 2.030617,45.186718 1.299263,45.335983 
	C1.000000,30.367908 1.000000,15.735816 1.000000,1.051862 
	C35.217758,1.051862 69.435608,1.051862 104.000000,1.051862 
	C104.000000,13.685458 104.000000,26.374071 104.000000,39.531342 
z"/>
<path fill="#000000" opacity="1.000000" stroke="none" 
	d="
M1.000000,65.468658 
	C1.635602,65.292961 2.748161,65.481819 2.838111,65.893890 
	C6.563095,82.958656 16.874577,94.617340 32.316269,102.140068 
	C32.863056,102.406448 33.228775,103.044518 33.339443,103.754677 
	C22.399500,104.000000 11.798999,104.000000 1.000000,104.000000 
	C1.000000,91.313126 1.000000,78.625221 1.000000,65.468658 
z"/>
<path fill="#000000" opacity="1.000000" stroke="none" 
	d="
M73.468658,104.000000 
	C73.710220,103.134987 74.242744,101.904030 75.157349,101.459923 
	C88.491020,94.985474 97.307159,84.606361 102.155769,70.699455 
	C102.347229,70.150314 103.024193,69.770447 103.737473,69.655853 
	C104.000000,81.256493 104.000000,92.512985 104.000000,104.000000 
	C93.980286,104.000000 83.958801,104.000000 73.468658,104.000000 
z"/>
<path fill="#131212" opacity="1.000000" stroke="none" 
	d="
M77.252007,46.250389 
	C74.153038,49.030792 71.304451,51.560928 67.506584,54.934231 
	C73.152199,60.198410 78.071953,64.631149 82.810226,69.250053 
	C87.032974,73.366409 86.940689,75.424324 82.814102,79.686073 
	C72.662880,90.169815 72.660309,90.172386 62.305714,79.809593 
	C59.368458,76.870010 56.451000,73.910645 52.717793,70.147141 
	C48.098595,74.984657 43.710609,79.685417 39.204197,84.269753 
	C34.710213,88.841438 32.543728,88.803940 27.953798,84.356972 
	C17.888138,74.604843 17.862761,74.579262 27.883358,64.640060 
	C30.948708,61.599613 34.195171,58.741768 38.019276,55.186085 
	C32.884647,50.173687 28.240370,45.721455 23.690228,41.175011 
	C19.224211,36.712627 19.251692,34.305073 23.609159,29.881020 
	C33.474686,19.864742 33.485291,19.854166 43.267319,29.669331 
	C46.417336,32.830009 49.495331,36.062466 53.344078,40.020920 
	C58.329647,34.728203 62.799343,29.836090 67.435242,25.106909 
	C71.332581,21.131144 73.639305,21.120705 77.538147,24.963951 
	C88.511581,35.780903 89.064865,34.727245 77.252007,46.250389 
z"/>
</svg>