<svg version="1.1" id="Layer_1" xmlns="http://www.w3.org/2000/svg" xmlns:xlink="http://www.w3.org/1999/xlink" x="0px" y="0px"
	 width="100%" viewBox="0 0 106 106" enable-background="new 0 0 106 106" xml:space="preserve">
<path fill="#F49339" opacity="1.000000" stroke="none" 
	d="
M50.000000,1.000000 
	C53.030594,1.000000 56.061188,1.000000 59.205772,1.320412 
	C59.980392,2.079315 60.601074,2.818871 61.307449,2.912598 
	C83.269859,5.826741 97.647842,17.955858 105.069977,38.670315 
	C105.283905,39.267406 106.337769,39.563538 107.000000,40.000000 
	C107.000000,49.687561 107.000000,59.375122 106.727524,69.191460 
	C105.964653,70.110191 105.321175,70.843811 105.006599,71.698479 
	C99.449326,86.797401 89.595886,97.774826 74.518440,103.879028 
	C72.862534,104.549431 71.499092,105.942245 70.000000,107.000000 
	C60.312439,107.000000 50.624878,107.000000 40.808582,106.727432 
	C40.219593,106.004532 39.837910,105.326805 39.287743,105.136703 
	C18.323011,97.893021 5.841916,83.638855 2.888486,61.393280 
	C2.816991,60.854771 1.653938,60.461182 1.000000,60.000000 
	C1.000000,56.969406 1.000000,53.938812 1.331175,50.789879 
	C2.155504,48.353867 2.538361,46.006214 3.158959,43.723190 
	C9.035977,22.103071 24.860695,5.571455 48.115238,2.913840 
	C48.807358,2.834742 49.374557,1.662547 50.000000,1.000000 
M12.291493,59.994171 
	C16.981653,67.763351 24.809902,69.937317 31.127810,65.225151 
	C36.943756,60.887371 37.836040,52.582287 33.072552,47.124138 
	C29.495487,43.025433 23.537487,41.792046 18.487782,44.104889 
	C13.046577,46.597054 10.788104,51.938709 12.291493,59.994171 
M47.268688,45.623241 
	C42.531330,50.538086 41.370743,55.914497 43.965652,60.924526 
	C46.441582,65.704834 51.631699,68.346512 56.831024,67.431511 
	C61.887657,66.541626 65.284012,63.558567 66.805664,58.749886 
	C68.355507,53.852146 66.443611,48.427383 62.294315,45.417683 
	C57.601608,42.013813 52.740459,42.088806 47.268688,45.623241 
M83.350250,67.220711 
	C89.092018,68.486320 93.627335,66.452026 96.597664,61.616428 
	C99.226135,57.337387 99.105652,52.704422 96.304024,48.413353 
	C93.351456,43.891106 87.891197,41.928448 82.758362,43.345066 
	C77.824860,44.706669 74.149826,49.176159 73.854996,54.173119 
	C73.482750,60.482349 76.103539,64.354134 83.350250,67.220711 
z"/>
<path fill="#000000" opacity="1.000000" stroke="none" 
	d="
M49.531342,1.000000 
	C49.374557,1.662547 48.807358,2.834742 48.115238,2.913840 
	C24.860695,5.571455 9.035977,22.103071 3.158959,43.723190 
	C2.538361,46.006214 2.155504,48.353867 1.331175,50.335770 
	C1.000000,33.739925 1.000000,17.479853 1.000000,1.000000 
	C17.020226,1.000000 33.041454,1.000000 49.531342,1.000000 
z"/>
<path fill="#000000" opacity="1.000000" stroke="none" 
	d="
M1.000000,60.468658 
	C1.653938,60.461182 2.816991,60.854771 2.888486,61.393280 
	C5.841916,83.638855 18.323011,97.893021 39.287743,105.136703 
	C39.837910,105.326805 40.219593,106.004532 40.339924,106.727432 
	C27.066492,107.000000 14.132984,107.000000 1.000000,107.000000 
	C1.000000,91.646347 1.000000,76.291832 1.000000,60.468658 
z"/>
<path fill="#000000" opacity="1.000000" stroke="none" 
	d="
M107.000000,39.531342 
	C106.337769,39.563538 105.283905,39.267406 105.069977,38.670315 
	C97.647842,17.955858 83.269859,5.826741 61.307449,2.912598 
	C60.601074,2.818871 59.980392,2.079315 59.659882,1.320412 
	C75.586533,1.000000 91.173073,1.000000 107.000000,1.000000 
	C107.000000,13.686550 107.000000,26.374617 107.000000,39.531342 
z"/>
<path fill="#000000" opacity="1.000000" stroke="none" 
	d="
M70.468658,107.000000 
	C71.499092,105.942245 72.862534,104.549431 74.518440,103.879028 
	C89.595886,97.774826 99.449326,86.797401 105.006599,71.698479 
	C105.321175,70.843811 105.964653,70.110191 106.727524,69.660118 
	C107.000000,82.259949 107.000000,94.519905 107.000000,107.000000 
	C94.980003,107.000000 82.958656,107.000000 70.468658,107.000000 
z"/>
<path fill="#161412" opacity="1.000000" stroke="none" 
	d="
M12.183880,59.631672 
	C10.788104,51.938709 13.046577,46.597054 18.487782,44.104889 
	C23.537487,41.792046 29.495487,43.025433 33.072552,47.124138 
	C37.836040,52.582287 36.943756,60.887371 31.127810,65.225151 
	C24.809902,69.937317 16.981653,67.763351 12.183880,59.631672 
z"/>
<path fill="#151312" opacity="1.000000" stroke="none" 
	d="
M47.573624,45.391827 
	C52.740459,42.088806 57.601608,42.013813 62.294315,45.417683 
	C66.443611,48.427383 68.355507,53.852146 66.805664,58.749886 
	C65.284012,63.558567 61.887657,66.541626 56.831024,67.431511 
	C51.631699,68.346512 46.441582,65.704834 43.965652,60.924526 
	C41.370743,55.914497 42.531330,50.538086 47.573624,45.391827 
z"/>
<path fill="#161412" opacity="1.000000" stroke="none" 
	d="
M82.971603,67.151352 
	C76.103539,64.354134 73.482750,60.482349 73.854996,54.173119 
	C74.149826,49.176159 77.824860,44.706669 82.758362,43.345066 
	C87.891197,41.928448 93.351456,43.891106 96.304024,48.413353 
	C99.105652,52.704422 99.226135,57.337387 96.597664,61.616428 
	C93.627335,66.452026 89.092018,68.486320 82.971603,67.151352 
z"/>
</svg>