<svg version="1.1" id="Layer_1" xmlns="http://www.w3.org/2000/svg" xmlns:xlink="http://www.w3.org/1999/xlink" x="0px" y="0px"
	 width="100%" viewBox="0 0 103 103" enable-background="new 0 0 103 103" xml:space="preserve">
<path fill="#F9CE39" opacity="1.000000" stroke="none" 
	d="
M104.000000,37.000000 
	C104.000000,47.687561 104.000000,58.375122 103.719650,69.197617 
	C103.056274,69.649178 102.468147,69.890312 102.319801,70.293335 
	C96.522621,86.041855 85.821022,96.746986 69.848175,102.128349 
	C69.405510,102.277496 69.275703,103.355263 69.000000,104.000000 
	C58.979107,104.000000 48.958210,104.000000 38.801033,103.724930 
	C37.314392,102.635696 36.038094,101.648666 34.602432,101.033623 
	C16.544176,93.297440 5.590276,80.086838 2.925388,60.350506 
	C2.809999,59.495926 1.665245,58.780338 0.999999,58.000000 
	C1.000000,54.969406 1.000000,51.938812 1.322015,48.792763 
	C2.092789,47.854889 2.842310,47.068661 2.946290,46.204742 
	C5.499786,24.989101 22.441257,6.765899 43.146378,2.924217 
	C43.858738,2.792044 44.386303,1.663915 45.000000,1.000000 
	C50.354931,1.000000 55.709858,1.000000 61.194614,1.310935 
	C61.807041,2.055441 62.234913,2.777399 62.780159,2.880877 
	C81.967537,6.522269 95.201462,17.239140 102.064125,35.660175 
	C102.288872,36.263454 103.336143,36.560307 104.000000,37.000000 
M63.363174,48.953384 
	C63.885452,39.331642 64.472481,29.712803 64.903847,20.086987 
	C65.134056,14.949780 63.406719,13.247876 58.216270,13.169018 
	C54.394600,13.110955 50.569645,13.102615 46.749008,13.192884 
	C43.351864,13.273148 41.358566,15.181623 41.489799,18.525652 
	C41.991455,31.308411 42.628025,44.086697 43.332611,56.860126 
	C43.526215,60.369976 45.526722,62.195610 49.206627,62.188286 
	C62.863155,62.161098 63.011753,63.298729 63.363174,48.953384 
M40.343807,78.185989 
	C39.665039,86.226456 43.434284,92.051804 50.364594,93.673042 
	C56.214401,95.041527 62.699623,91.751892 65.139015,86.178696 
	C68.032562,79.567902 65.096954,72.007378 58.495457,69.068527 
	C51.241486,65.839211 44.202900,69.135246 40.343807,78.185989 
z"/>
<path fill="#000000" opacity="1.000000" stroke="none" 
	d="
M44.531342,1.000000 
	C44.386303,1.663915 43.858738,2.792044 43.146378,2.924217 
	C22.441257,6.765899 5.499786,24.989101 2.946290,46.204742 
	C2.842310,47.068661 2.092789,47.854889 1.322015,48.338654 
	C1.000000,32.409039 1.000000,16.818075 1.000000,1.000000 
	C15.353430,1.000000 29.708055,1.000000 44.531342,1.000000 
z"/>
<path fill="#000000" opacity="1.000000" stroke="none" 
	d="
M0.999999,58.468658 
	C1.665245,58.780338 2.809999,59.495926 2.925388,60.350506 
	C5.590276,80.086838 16.544176,93.297440 34.602432,101.033623 
	C36.038094,101.648666 37.314392,102.635696 38.332375,103.724930 
	C25.732044,104.000000 13.464087,104.000000 1.000000,104.000000 
	C1.000000,88.979675 1.000000,73.958496 0.999999,58.468658 
z"/>
<path fill="#000000" opacity="1.000000" stroke="none" 
	d="
M104.000000,36.531342 
	C103.336143,36.560307 102.288872,36.263454 102.064125,35.660175 
	C95.201462,17.239140 81.967537,6.522269 62.780159,2.880877 
	C62.234913,2.777399 61.807041,2.055441 61.662220,1.310935 
	C75.920998,1.000000 89.842003,1.000000 104.000000,1.000000 
	C104.000000,12.686494 104.000000,24.374588 104.000000,36.531342 
z"/>
<path fill="#000000" opacity="1.000000" stroke="none" 
	d="
M69.468658,104.000000 
	C69.275703,103.355263 69.405510,102.277496 69.848175,102.128349 
	C85.821022,96.746986 96.522621,86.041855 102.319801,70.293335 
	C102.468147,69.890312 103.056274,69.649178 103.719650,69.666275 
	C104.000000,81.260979 104.000000,92.521957 104.000000,104.000000 
	C92.646690,104.000000 81.292007,104.000000 69.468658,104.000000 
z"/>
<path fill="#151412" opacity="1.000000" stroke="none" 
	d="
M63.325325,49.412254 
	C63.011753,63.298729 62.863155,62.161098 49.206627,62.188286 
	C45.526722,62.195610 43.526215,60.369976 43.332611,56.860126 
	C42.628025,44.086697 41.991455,31.308411 41.489799,18.525652 
	C41.358566,15.181623 43.351864,13.273148 46.749008,13.192884 
	C50.569645,13.102615 54.394600,13.110955 58.216270,13.169018 
	C63.406719,13.247876 65.134056,14.949780 64.903847,20.086987 
	C64.472481,29.712803 63.885452,39.331642 63.325325,49.412254 
z"/>
<path fill="#151512" opacity="1.000000" stroke="none" 
	d="
M40.482231,77.812469 
	C44.202900,69.135246 51.241486,65.839211 58.495457,69.068527 
	C65.096954,72.007378 68.032562,79.567902 65.139015,86.178696 
	C62.699623,91.751892 56.214401,95.041527 50.364594,93.673042 
	C43.434284,92.051804 39.665039,86.226456 40.482231,77.812469 
z"/>
</svg>