<svg version="1.1" id="Layer_1" xmlns="http://www.w3.org/2000/svg" xmlns:xlink="http://www.w3.org/1999/xlink" x="0px" y="0px"
	 width="100%" viewBox="0 0 103 103" enable-background="new 0 0 103 103" xml:space="preserve">
<path fill="#37B24A" opacity="1.000000" stroke="none" 
	d="
M68.000000,104.000000 
	C57.979107,104.000000 47.958210,104.000000 37.658768,103.653053 
	C37.054440,102.939720 36.798553,102.383911 36.392811,102.234207 
	C18.832127,95.754250 7.362814,83.773323 2.873368,65.387253 
	C2.731673,64.806953 1.645741,64.457222 1.000000,64.000000 
	C1.000000,57.312355 1.000000,50.624710 1.375625,43.618103 
	C2.098983,42.963535 2.664107,42.682186 2.763327,42.284573 
	C8.275345,20.195951 22.193716,7.074387 44.575794,2.863186 
	C45.147156,2.755685 45.529503,1.643585 46.000000,1.000000 
	C50.356899,1.000000 54.713799,1.000000 59.400463,1.390483 
	C60.070797,2.119846 60.370674,2.697419 60.757771,2.763414 
	C81.609337,6.318353 95.046005,18.458126 102.019539,38.189022 
	C102.282501,38.933060 103.322235,39.402565 104.000000,40.000000 
	C104.000000,48.687565 104.000000,57.375126 103.643272,66.353622 
	C102.883675,67.133102 102.287575,67.559036 102.106049,68.119286 
	C96.707191,84.782112 86.012169,96.296417 69.338814,102.099342 
	C68.744087,102.306335 68.439705,103.347580 68.000000,104.000000 
M21.602041,44.886978 
	C19.522919,46.801403 17.370789,48.643188 15.379342,50.644848 
	C10.727884,55.320137 10.727101,57.186535 15.359832,61.851986 
	C22.636465,69.180031 29.944687,76.476875 37.265945,83.760368 
	C42.280777,88.749344 44.227337,88.751694 49.265484,83.727249 
	C61.649353,71.377075 74.005394,58.999001 86.372520,46.632038 
	C95.982491,37.022202 95.929535,36.388222 85.879768,27.332090 
	C82.873146,24.622740 80.125252,24.304857 77.193047,27.295191 
	C74.510979,30.030432 71.740120,32.679047 69.074333,35.429741 
	C60.753746,44.015339 52.464390,52.631199 44.505219,60.880558 
	C43.009327,60.261990 42.629818,60.212425 42.410603,59.998558 
	C38.001766,55.697208 33.790497,51.168026 29.124992,47.168137 
	C27.373310,45.666367 24.575199,45.385155 21.602041,44.886978 
z"/>
<path fill="#000000" opacity="1.000000" stroke="none" 
	d="
M45.531342,1.000000 
	C45.529503,1.643585 45.147156,2.755685 44.575794,2.863186 
	C22.193716,7.074387 8.275345,20.195951 2.763327,42.284573 
	C2.664107,42.682186 2.098983,42.963535 1.375625,43.149567 
	C1.000000,29.070780 1.000000,15.141559 1.000000,1.000000 
	C15.686879,1.000000 30.374781,1.000000 45.531342,1.000000 
z"/>
<path fill="#000000" opacity="1.000000" stroke="none" 
	d="
M104.000000,39.531342 
	C103.322235,39.402565 102.282501,38.933060 102.019539,38.189022 
	C95.046005,18.458126 81.609337,6.318353 60.757771,2.763414 
	C60.370674,2.697419 60.070797,2.119846 59.865112,1.390483 
	C74.588921,1.000000 89.177849,1.000000 104.000000,1.000000 
	C104.000000,13.686609 104.000000,26.374645 104.000000,39.531342 
z"/>
<path fill="#000000" opacity="1.000000" stroke="none" 
	d="
M1.000000,64.468658 
	C1.645741,64.457222 2.731673,64.806953 2.873368,65.387253 
	C7.362814,83.773323 18.832127,95.754250 36.392811,102.234207 
	C36.798553,102.383911 37.054440,102.939720 37.190109,103.653053 
	C25.069508,104.000000 13.139017,104.000000 1.000000,104.000000 
	C1.000000,90.979851 1.000000,77.958580 1.000000,64.468658 
z"/>
<path fill="#000000" opacity="1.000000" stroke="none" 
	d="
M68.468658,104.000000 
	C68.439705,103.347580 68.744087,102.306335 69.338814,102.099342 
	C86.012169,96.296417 96.707191,84.782112 102.106049,68.119286 
	C102.287575,67.559036 102.883675,67.133102 103.643272,66.822281 
	C104.000000,79.258942 104.000000,91.517876 104.000000,104.000000 
	C92.313385,104.000000 80.625351,104.000000 68.468658,104.000000 
z"/>
<path fill="#111312" opacity="1.000000" stroke="none" 
	d="
M21.928104,44.717228 
	C24.575199,45.385155 27.373310,45.666367 29.124992,47.168137 
	C33.790497,51.168026 38.001766,55.697208 42.410603,59.998558 
	C42.629818,60.212425 43.009327,60.261990 44.505219,60.880558 
	C52.464390,52.631199 60.753746,44.015339 69.074333,35.429741 
	C71.740120,32.679047 74.510979,30.030432 77.193047,27.295191 
	C80.125252,24.304857 82.873146,24.622740 85.879768,27.332090 
	C95.929535,36.388222 95.982491,37.022202 86.372520,46.632038 
	C74.005394,58.999001 61.649353,71.377075 49.265484,83.727249 
	C44.227337,88.751694 42.280777,88.749344 37.265945,83.760368 
	C29.944687,76.476875 22.636465,69.180031 15.359832,61.851986 
	C10.727101,57.186535 10.727884,55.320137 15.379342,50.644848 
	C17.370789,48.643188 19.522919,46.801403 21.928104,44.717228 
z"/>
</svg>