<svg version="1.1" id="Layer_1" xmlns="http://www.w3.org/2000/svg" xmlns:xlink="http://www.w3.org/1999/xlink" x="0px" y="0px"
	 width="100%" viewBox="0 0 103 103" enable-background="new 0 0 103 103" xml:space="preserve">
<path fill="#07BBB7" opacity="1.000000" stroke="none" 
	d="
M70.000000,104.000000 
	C58.645771,104.000000 47.291546,104.000000 35.808060,103.732178 
	C35.051933,102.986160 34.493488,102.336601 33.788136,102.054932 
	C18.083187,95.783539 7.600336,84.766190 2.910843,68.381058 
	C2.740839,67.787056 1.657620,67.454437 1.000000,67.000000 
	C1.000000,58.645767 1.000000,50.291534 1.277297,41.808197 
	C2.065506,40.717690 2.549563,39.740856 3.091647,38.797363 
	C6.885138,32.194798 9.791618,24.825653 14.670683,19.154749 
	C26.533165,5.367067 42.594685,1.097201 60.099480,3.184297 
	C71.502808,4.543916 81.988495,9.683185 89.458183,18.397776 
	C94.716393,24.532310 97.785683,32.537003 101.893280,39.671577 
	C102.403702,40.558151 103.288612,41.229122 104.000000,42.000000 
	C104.000000,49.687576 104.000000,57.375153 103.706619,65.194839 
	C102.977753,65.804146 102.287781,66.215057 102.143730,66.768150 
	C97.742912,83.665741 87.450775,95.376564 71.341072,102.062210 
	C70.731049,102.315376 70.439804,103.336662 70.000000,104.000000 
M71.477859,27.773855 
	C58.685352,26.830116 45.892841,25.886379 32.949875,24.931541 
	C32.949875,44.740887 32.949875,63.066261 32.949875,81.249588 
	C38.821640,81.249588 44.199551,81.249588 49.973286,81.249588 
	C49.973286,74.349060 49.973286,67.917824 49.973286,61.380344 
	C55.629395,60.962250 60.950344,60.976234 66.117622,60.092106 
	C73.992516,58.744698 78.359543,54.274303 79.525520,46.700359 
	C80.682518,39.184727 79.402046,32.399410 71.477859,27.773855 
z"/>
<path fill="#000000" opacity="1.000000" stroke="none" 
	d="
M104.000000,41.531342 
	C103.288612,41.229122 102.403702,40.558151 101.893280,39.671577 
	C97.785683,32.537003 94.716393,24.532310 89.458183,18.397776 
	C81.988495,9.683185 71.502808,4.543916 60.099480,3.184297 
	C42.594685,1.097201 26.533165,5.367067 14.670683,19.154749 
	C9.791618,24.825653 6.885138,32.194798 3.091647,38.797363 
	C2.549563,39.740856 2.065506,40.717690 1.277297,41.339546 
	C1.000000,27.698442 1.000000,14.396885 1.000000,1.047663 
	C35.219681,1.047663 69.439438,1.047663 104.000000,1.047663 
	C104.000000,14.352295 104.000000,27.707489 104.000000,41.531342 
z"/>
<path fill="#000000" opacity="1.000000" stroke="none" 
	d="
M70.468658,104.000000 
	C70.439804,103.336662 70.731049,102.315376 71.341072,102.062210 
	C87.450775,95.376564 97.742912,83.665741 102.143730,66.768150 
	C102.287781,66.215057 102.977753,65.804146 103.706619,65.663483 
	C104.000000,78.589195 104.000000,91.178383 104.000000,104.000000 
	C92.980194,104.000000 81.958755,104.000000 70.468658,104.000000 
z"/>
<path fill="#000000" opacity="1.000000" stroke="none" 
	d="
M1.000000,67.468658 
	C1.657620,67.454437 2.740839,67.787056 2.910843,68.381058 
	C7.600336,84.766190 18.083187,95.783539 33.788136,102.054932 
	C34.493488,102.336601 35.051933,102.986160 35.339401,103.732178 
	C23.736967,104.000000 12.473936,104.000000 1.000000,104.000000 
	C1.000000,91.979927 1.000000,79.958618 1.000000,67.468658 
z"/>
<path fill="#111616" opacity="1.000000" stroke="none" 
	d="
M71.831116,27.923807 
	C79.402046,32.399410 80.682518,39.184727 79.525520,46.700359 
	C78.359543,54.274303 73.992516,58.744698 66.117622,60.092106 
	C60.950344,60.976234 55.629395,60.962250 49.973286,61.380344 
	C49.973286,67.917824 49.973286,74.349060 49.973286,81.249588 
	C44.199551,81.249588 38.821640,81.249588 32.949875,81.249588 
	C32.949875,63.066261 32.949875,44.740887 32.949875,24.931541 
	C45.892841,25.886379 58.685352,26.830116 71.831116,27.923807 
M57.470993,49.223785 
	C61.682964,48.501041 63.629841,45.979759 62.787235,41.810448 
	C61.925014,37.544075 57.123154,36.109856 50.281273,37.777794 
	C50.281273,41.676697 50.281273,45.549320 50.281273,49.727261 
	C52.722980,49.583839 54.694927,49.468010 57.470993,49.223785 
z"/>
<path fill="#07B4B0" opacity="1.000000" stroke="none" 
	d="
M57.068932,49.287983 
	C54.694927,49.468010 52.722980,49.583839 50.281273,49.727261 
	C50.281273,45.549320 50.281273,41.676697 50.281273,37.777794 
	C57.123154,36.109856 61.925014,37.544075 62.787235,41.810448 
	C63.629841,45.979759 61.682964,48.501041 57.068932,49.287983 
z"/>
</svg>