<svg version="1.1" id="Layer_1" xmlns="http://www.w3.org/2000/svg" xmlns:xlink="http://www.w3.org/1999/xlink" x="0px" y="0px"
	 width="100%" viewBox="0 0 103 103" enable-background="new 0 0 103 103" xml:space="preserve">
<path fill="#37B34A" opacity="1.000000" stroke="none" 
	d="
M1.000000,67.000000 
	C1.000000,58.645767 1.000000,50.291534 1.369826,41.627388 
	C2.091862,40.982502 2.643883,40.708622 2.767656,40.303810 
	C9.357465,18.750933 23.557320,6.061713 46.058525,2.904945 
	C46.780556,2.803649 47.356144,1.658524 48.000000,1.000001 
	C50.700012,1.000000 53.400028,1.000000 56.425343,1.399909 
	C57.255341,2.171847 57.724472,2.803854 58.269859,2.878468 
	C81.040817,5.993763 95.466850,18.749052 102.118256,40.608028 
	C102.300636,41.207386 103.353203,41.541958 104.000000,42.000000 
	C104.000000,49.687576 104.000000,57.375153 103.640823,65.354721 
	C101.433464,69.956200 100.008865,74.514084 97.655594,78.527420 
	C91.259850,89.434921 82.465553,97.754814 70.303116,102.098000 
	C69.717072,102.307274 69.427589,103.347000 69.000000,104.000000 
	C58.312439,104.000000 47.624878,104.000000 36.656410,103.652168 
	C36.179497,103.038910 36.037418,102.620865 35.779789,102.529839 
	C19.092829,96.633118 8.159408,85.238701 2.899786,68.337517 
	C2.717377,67.751373 1.653194,67.439636 1.000000,67.000000 
M48.496670,24.916470 
	C41.362793,24.916470 34.228912,24.916470 26.630724,24.916470 
	C26.496944,27.330751 26.300100,29.278496 26.295542,31.226690 
	C26.266720,43.547077 26.280375,55.867569 26.280237,68.188026 
	C26.280094,81.209717 26.278822,81.056595 39.222519,80.939781 
	C43.130924,80.904503 44.035419,79.416977 43.902702,75.893120 
	C43.684486,70.099190 43.843555,64.291054 43.843555,58.488907 
	C44.312168,58.100567 44.780777,57.712227 45.249390,57.323883 
	C47.497574,59.072575 50.368069,60.407192 51.864456,62.656116 
	C54.984829,67.345726 57.320354,72.551857 60.112526,77.469574 
	C60.808746,78.695793 61.970924,80.505394 62.994762,80.557526 
	C68.835411,80.854897 74.699005,80.701828 82.156731,80.701828 
	C76.406082,71.358131 71.529343,63.434357 66.529770,55.311012 
	C66.616501,55.264637 67.764793,54.679161 68.886307,54.046211 
	C74.941444,50.628838 77.770897,44.609165 76.638962,37.584888 
	C75.580750,31.018148 71.531570,26.665619 64.423058,25.605349 
	C59.521610,24.874273 54.475689,25.111811 48.496670,24.916470 
z"/>
<path fill="#000000" opacity="1.000000" stroke="none" 
	d="
M104.000000,41.531342 
	C103.353203,41.541958 102.300636,41.207386 102.118256,40.608028 
	C95.466850,18.749052 81.040817,5.993763 58.269859,2.878468 
	C57.724472,2.803854 57.255341,2.171847 56.875320,1.399909 
	C72.588371,1.000000 88.176735,1.000000 104.000000,1.000000 
	C104.000000,14.353311 104.000000,27.707996 104.000000,41.531342 
z"/>
<path fill="#000000" opacity="1.000000" stroke="none" 
	d="
M47.531342,1.000001 
	C47.356144,1.658524 46.780556,2.803649 46.058525,2.904945 
	C23.557320,6.061713 9.357465,18.750933 2.767656,40.303810 
	C2.643883,40.708622 2.091862,40.982502 1.369826,41.158737 
	C1.000000,27.734077 1.000000,14.468156 1.000000,1.000000 
	C16.353636,1.000000 31.708160,1.000000 47.531342,1.000001 
z"/>
<path fill="#000000" opacity="1.000000" stroke="none" 
	d="
M69.468658,104.000000 
	C69.427589,103.347000 69.717072,102.307274 70.303116,102.098000 
	C82.465553,97.754814 91.259850,89.434921 97.655594,78.527420 
	C100.008865,74.514084 101.433464,69.956200 103.640823,65.823349 
	C104.000000,78.590263 104.000000,91.180527 104.000000,104.000000 
	C92.646797,104.000000 81.292061,104.000000 69.468658,104.000000 
z"/>
<path fill="#000000" opacity="1.000000" stroke="none" 
	d="
M1.000000,67.468658 
	C1.653194,67.439636 2.717377,67.751373 2.899786,68.337517 
	C8.159408,85.238701 19.092829,96.633118 35.779789,102.529839 
	C36.037418,102.620865 36.179497,103.038910 36.187752,103.652168 
	C24.404690,104.000000 12.809381,104.000000 1.000000,104.000000 
	C1.000000,91.979950 1.000000,79.958633 1.000000,67.468658 
z"/>
<path fill="#121512" opacity="1.000000" stroke="none" 
	d="
M48.995499,24.916468 
	C54.475689,25.111811 59.521610,24.874273 64.423058,25.605349 
	C71.531570,26.665619 75.580750,31.018148 76.638962,37.584888 
	C77.770897,44.609165 74.941444,50.628838 68.886307,54.046211 
	C67.764793,54.679161 66.616501,55.264637 66.529770,55.311012 
	C71.529343,63.434357 76.406082,71.358131 82.156731,80.701828 
	C74.699005,80.701828 68.835411,80.854897 62.994762,80.557526 
	C61.970924,80.505394 60.808746,78.695793 60.112526,77.469574 
	C57.320354,72.551857 54.984829,67.345726 51.864456,62.656116 
	C50.368069,60.407192 47.497574,59.072575 45.249390,57.323883 
	C44.780777,57.712227 44.312168,58.100567 43.843555,58.488907 
	C43.843555,64.291054 43.684486,70.099190 43.902702,75.893120 
	C44.035419,79.416977 43.130924,80.904503 39.222519,80.939781 
	C26.278822,81.056595 26.280094,81.209717 26.280237,68.188026 
	C26.280375,55.867569 26.266720,43.547077 26.295542,31.226690 
	C26.300100,29.278496 26.496944,27.330751 26.630724,24.916470 
	C34.228912,24.916470 41.362793,24.916470 48.995499,24.916468 
M43.962467,37.834202 
	C43.962467,40.787251 43.962467,43.740299 43.962467,47.588875 
	C48.086739,47.282421 51.931168,47.495014 55.443245,46.515713 
	C57.083702,46.058292 59.096931,43.286228 59.081982,41.579552 
	C59.067291,39.902275 56.897709,37.087410 55.320442,36.814636 
	C51.744423,36.196198 47.951118,36.834171 43.962467,37.834202 
z"/>
<path fill="#35AC48" opacity="1.000000" stroke="none" 
	d="
M44.104313,37.397751 
	C47.951118,36.834171 51.744423,36.196198 55.320442,36.814636 
	C56.897709,37.087410 59.067291,39.902275 59.081982,41.579552 
	C59.096931,43.286228 57.083702,46.058292 55.443245,46.515713 
	C51.931168,47.495014 48.086739,47.282421 43.962467,47.588875 
	C43.962467,43.740299 43.962467,40.787251 44.104313,37.397751 
z"/>
</svg>