<svg width="43" height="60" viewBox="0 0 43 60" fill="none" xmlns="http://www.w3.org/2000/svg">
<path d="M11.1252 33.9103H29.5002L28.6982 34.7103H11.1252V33.9103ZM15.0992 14.9103V15.7103H25.0992V14.9103H15.0992ZM11.1252 28.7103H33.0732V27.9103H11.1252V28.7103ZM7.99922 29.7103H5.19922V26.9103H7.99922V29.7103ZM7.19922 27.7103H5.99922V28.9103H7.19922V27.7103ZM11.1252 39.9103V40.7103H22.6942L23.4952 39.9103H11.1252ZM11.1252 23.7103H33.0732V22.9103H11.1252V23.7103ZM7.99922 35.7103H5.19922V32.9103H7.99922V35.7103ZM7.19922 33.7103H5.99922V34.9103H7.19922V33.7103ZM5.19922 38.9103H7.99922V41.7103H5.19922V38.9103ZM5.99922 40.9103H7.19922V39.7103H5.99922V40.9103ZM7.99922 23.7103H5.19922V20.9103H7.99922V23.7103ZM7.19922 21.7103H5.99922V22.9103H7.19922V21.7103ZM21.9992 4.81032V5.81032C21.9987 6.04885 21.9037 6.27747 21.735 6.44613C21.5664 6.6148 21.3378 6.70979 21.0992 6.71032H20.0992C19.8607 6.70979 19.6321 6.6148 19.4634 6.44613C19.2947 6.27747 19.1997 6.04885 19.1992 5.81032V4.81032C19.1997 4.57179 19.2947 4.34318 19.4634 4.17451C19.6321 4.00584 19.8607 3.91085 20.0992 3.91032H21.0992C21.3378 3.91085 21.5664 4.00584 21.735 4.17451C21.9037 4.34318 21.9987 4.57179 21.9992 4.81032ZM21.1992 4.81032C21.1992 4.7838 21.1887 4.75836 21.1699 4.73961C21.1512 4.72086 21.1257 4.71032 21.0992 4.71032H20.0992C20.0727 4.71032 20.0473 4.72086 20.0285 4.73961C20.0098 4.75836 19.9992 4.7838 19.9992 4.81032V5.81032C19.9992 5.83684 20.0098 5.86228 20.0285 5.88103C20.0473 5.89979 20.0727 5.91032 20.0992 5.91032H21.0992C21.1257 5.91032 21.1512 5.89979 21.1699 5.88103C21.1887 5.86228 21.1992 5.83684 21.1992 5.81032V4.81032ZM8.71522 56.7103H2.30222C1.74479 56.7093 1.2105 56.4874 0.81634 56.0932C0.42218 55.699 0.200276 55.1647 0.199219 54.6073V9.01332C0.200276 8.4559 0.42218 7.9216 0.81634 7.52744C1.2105 7.13328 1.74479 6.91138 2.30222 6.91032H8.80822C8.93252 6.2943 9.26592 5.74018 9.75196 5.3418C10.238 4.94342 10.8468 4.72528 11.4752 4.72432H16.4042C16.5037 3.68062 16.9886 2.71148 17.7643 2.00617C18.54 1.30086 19.5508 0.910034 20.5992 0.910034C21.6476 0.910034 22.6584 1.30086 23.4341 2.00617C24.2098 2.71148 24.6948 3.68062 24.7942 4.72432H29.7232C30.3517 4.72528 30.9604 4.94342 31.4465 5.3418C31.9325 5.74018 32.2659 6.2943 32.3902 6.91032H37.8962C38.4536 6.91138 38.9879 7.13328 39.3821 7.52744C39.7763 7.9216 39.9982 8.4559 39.9992 9.01332V24.5943C39.9642 24.5923 39.9302 24.5833 39.8952 24.5823H39.8692C39.6422 24.5859 39.4168 24.6206 39.1992 24.6853V9.01332C39.199 8.66783 39.0616 8.33656 38.8173 8.09225C38.573 7.84795 38.2417 7.71059 37.8962 7.71032H32.4452V10.6123H8.75322V7.71032H2.30322C1.95755 7.71032 1.62602 7.84757 1.3815 8.0919C1.13699 8.33623 0.999483 8.66765 0.999218 9.01332V54.6073C0.999483 54.9528 1.13685 55.2841 1.38115 55.5284C1.62545 55.7727 1.95672 55.9101 2.30222 55.9103H9.00722L8.71522 56.7103ZM9.55522 9.81132H31.6442V7.71132H31.5992V7.04132C31.5065 6.61245 31.2699 6.2282 30.9286 5.95242C30.5874 5.67663 30.162 5.52592 29.7232 5.52532H24.0132V5.12532C24.0132 4.21987 23.6535 3.35151 23.0133 2.71126C22.373 2.07101 21.5047 1.71132 20.5992 1.71132C19.6938 1.71132 18.8254 2.07101 18.1852 2.71126C17.5449 3.35151 17.1852 4.21987 17.1852 5.12532V5.52532H11.4752C11.0366 5.52587 10.6113 5.67644 10.2701 5.95203C9.92883 6.22761 9.6921 6.61163 9.59922 7.04032V7.71032H9.55422L9.55522 9.81132ZM39.1992 36.1443V54.6073C39.199 54.9528 39.0616 55.2841 38.8173 55.5284C38.573 55.7727 38.2417 55.9101 37.8962 55.9103H19.3962L18.5942 56.7103H37.8962C38.4536 56.7093 38.9879 56.4874 39.3821 56.0932C39.7763 55.699 39.9982 55.1647 39.9992 54.6073V35.3453L39.1992 36.1443ZM37.4082 34.9643L37.9702 38.5453L37.8272 38.6903L26.7052 49.8103L26.1392 49.2443L37.1172 38.2673L36.7072 35.6633L14.9792 57.3503C14.7349 57.594 14.4389 57.7795 14.1132 57.8933L9.94822 59.4643L11.5062 55.1813C11.6196 54.8559 11.8049 54.5603 12.0482 54.3163L39.8742 26.5103L42.8122 29.5703L37.4082 34.9643ZM41.6912 29.5593L39.8632 27.6543L12.6152 54.8823C12.4558 55.0423 12.3345 55.2361 12.2602 55.4493L11.2952 58.1023L13.8392 57.1423C14.0552 57.0685 14.2515 56.9464 14.4132 56.7853L41.6912 29.5593Z" fill="#062E61"/>
</svg>
