<svg width="49" height="55" viewBox="0 0 49 55" fill="none" xmlns="http://www.w3.org/2000/svg">
<path d="M45.6102 22.2804C45.1945 20.3028 44.7112 18.34 44.1612 16.3954C42.8928 11.8959 40.1763 7.94019 36.4323 5.14078C32.6883 2.34137 28.1257 0.854497 23.4512 0.910422C18.6987 0.845578 14.0621 2.37898 10.2854 5.26463C6.50862 8.15028 3.81062 12.2209 2.62422 16.8234C2.35697 17.8479 2.10793 18.8771 1.87722 19.9104H1.59922C1.22808 19.911 0.872289 20.0586 0.609853 20.3211C0.347416 20.5835 0.199748 20.9393 0.199219 21.3104V23.3104C0.199748 23.6816 0.347416 24.0374 0.609853 24.2998C0.872289 24.5622 1.22808 24.7099 1.59922 24.7104H2.99922V19.9104H2.70022C2.92122 18.9394 3.15022 17.9674 3.39822 17.0264C4.54151 12.5957 7.13982 8.67747 10.7763 5.90012C14.4129 3.12276 18.8768 1.64731 23.4522 1.71042C27.9522 1.65572 32.3447 3.08623 35.9495 5.78042C39.5543 8.47461 42.1702 12.2822 43.3922 16.6134C43.8898 18.3822 44.332 20.1661 44.7182 21.9624C44.6554 21.9511 44.592 21.9438 44.5282 21.9404C44.0322 21.9404 43.1982 22.1984 43.1982 23.9214V34.5104C43.1982 36.2344 44.0322 36.4924 44.5282 36.4924C44.6649 36.4889 44.8006 36.4684 44.9322 36.4314C44.6467 37.2169 44.3352 37.9926 43.9982 38.7574C41.2112 45.0114 37.7612 51.1674 29.1232 51.8864C29 51.3164 28.6818 50.8072 28.2234 50.4467C27.765 50.0862 27.1952 49.8969 26.6122 49.9114H24.0992C23.7547 49.9113 23.4142 49.9853 23.1009 50.1284C22.7875 50.2716 22.5086 50.4805 22.2832 50.741C22.0578 51.0016 21.8911 51.3076 21.7945 51.6382C21.6979 51.9689 21.6736 52.3165 21.7232 52.6574C21.8293 53.2459 22.1429 53.7769 22.6072 54.1538C23.0714 54.5307 23.6555 54.7286 24.2532 54.7114H26.7662C27.3365 54.7156 27.8891 54.5134 28.3221 54.1422C28.7551 53.7709 29.0392 53.2557 29.1222 52.6914C38.2442 51.9634 41.9632 45.2894 44.7292 39.0824C45.1892 38.0504 45.6032 36.9904 45.9662 35.9324C47.4482 34.9234 48.9992 32.7694 48.9992 31.3344V27.0994C48.9992 25.5494 47.1892 23.1594 45.6102 22.2824V22.2804ZM2.19922 23.9104H1.59922C1.44009 23.9104 1.28748 23.8472 1.17495 23.7347C1.06243 23.6222 0.999218 23.4696 0.999218 23.3104V21.3104C0.999218 21.1513 1.06243 20.9987 1.17495 20.8862C1.28748 20.7736 1.44009 20.7104 1.59922 20.7104H2.19922V23.9104ZM27.9742 53.3604C27.8241 53.5334 27.6385 53.6722 27.4301 53.7672C27.2217 53.8623 26.9953 53.9115 26.7662 53.9114H24.2522C23.8485 53.9244 23.4532 53.7947 23.1357 53.545C22.8181 53.2954 22.5988 52.9418 22.5162 52.5464C22.4825 52.3189 22.4981 52.0867 22.5622 51.8657C22.6262 51.6448 22.7371 51.4402 22.8873 51.266C23.0376 51.0917 23.2236 50.9519 23.4327 50.8561C23.6418 50.7602 23.8692 50.7105 24.0992 50.7104H26.6122C27.0159 50.6978 27.4112 50.8276 27.7288 51.0772C28.0464 51.3268 28.266 51.6802 28.3492 52.0754C28.3839 52.3038 28.3684 52.5371 28.3036 52.7589C28.2388 52.9806 28.1264 53.1866 27.9742 53.3604ZM48.1992 31.3334C48.1992 32.7994 45.7632 35.6904 44.5282 35.6904C44.1782 35.6904 43.9992 35.2934 43.9992 34.5104V23.9204C43.9992 23.1374 44.1772 22.7404 44.5282 22.7404C45.7632 22.7404 48.1982 25.6304 48.1982 27.0974L48.1992 31.3334Z" fill="#062E61"/>
</svg>
