<svg width="48" height="36" viewBox="0 0 48 36" fill="none" xmlns="http://www.w3.org/2000/svg">
<path d="M47.6529 12.5184L24.2659 0.359375L0.878906 12.5184L5.86591 14.9664V33.8104H6.66591V15.3584L9.86591 16.9284V26.5564C9.86591 28.7604 17.6139 32.4294 24.1129 35.1204L24.2659 35.1834L24.4189 35.1204C30.9189 32.4304 38.6659 28.7604 38.6659 26.5564V16.9304L47.6529 12.5184ZM24.2659 1.26138L45.8789 12.4974L24.2659 23.1044L7.62591 14.9384L24.3189 12.7064L24.2129 11.9134L6.33291 14.3034L2.65291 12.4984L24.2659 1.26138ZM37.8659 26.5564C37.8659 27.8234 32.4079 30.9364 24.2659 34.3164C16.1239 30.9364 10.6659 27.8234 10.6659 26.5564V17.3214L24.2659 23.9964L37.8659 17.3214V26.5564Z" fill="#155197"/>
</svg>
