<svg width="43" height="49" viewBox="0 0 43 49" fill="none" xmlns="http://www.w3.org/2000/svg">
<path d="M32.3123 25.0334L32.4653 24.0734L31.6803 24.6474C27.2723 27.8724 19.6933 29.7744 13.2443 29.2744L12.2853 29.2004L12.9083 29.9324C15.0883 32.4924 19.1163 33.6854 21.9323 33.7104C24.4177 33.7579 26.8367 32.9061 28.7439 31.3118C30.6512 29.7174 31.9184 27.4878 32.3123 25.0334ZM21.9293 32.9104C19.1264 32.8563 16.4194 31.8799 14.2273 30.1324C20.2113 30.3694 26.9513 28.6764 31.3233 25.8624C30.7873 27.9275 29.566 29.7495 27.8594 31.0299C26.1528 32.3103 24.0619 32.9733 21.9293 32.9104ZM8.1463 25.5724C8.1513 25.5724 9.4043 25.5384 9.7473 25.5254C10.2012 25.5056 10.6296 25.3095 10.9411 24.9787C11.2526 24.648 11.4228 24.2087 11.4153 23.7544L11.4143 23.5504C11.4143 19.8404 14.3063 16.3224 17.2143 14.9034C17.6853 16.0202 18.466 16.9789 19.4643 17.6664L19.7853 17.8304L19.9813 17.5284C20.6173 16.5484 20.2513 11.8824 19.8483 9.76937L19.8403 9.73337C19.6303 9.00837 18.5653 8.71137 17.3603 9.04737C16.1303 9.38937 15.3873 10.1394 15.5643 10.9154C15.5643 10.9154 15.6383 11.1294 15.7193 11.3504C13.3529 12.4789 11.3413 14.2349 9.90339 16.4272C8.46553 18.6195 7.65649 21.1642 7.5643 23.7844L7.5623 24.0744C7.5593 24.3894 7.5563 24.7974 7.5683 25.0244C7.57575 25.1725 7.63995 25.3121 7.74758 25.4141C7.8552 25.5161 7.99799 25.5728 8.1463 25.5724ZM8.3643 23.7844C8.45719 21.2541 9.25851 18.8008 10.6771 16.7035C12.0956 14.6063 14.0744 12.9494 16.3883 11.9214L16.7443 11.7634L16.5953 11.4034C16.5053 11.1834 16.3353 10.6964 16.3313 10.6934C16.2973 10.5214 16.7013 10.0604 17.5753 9.81737C18.3953 9.59137 18.9953 9.76737 19.0673 9.94437C19.4845 12.1625 19.6075 14.426 19.4333 16.6764C18.7226 15.9662 18.1541 15.1268 17.7583 14.2034L17.5903 13.8614L17.2403 14.0114C13.9833 15.4144 10.6143 19.3654 10.6143 23.5504L10.6153 23.7714C10.6192 24.0161 10.5274 24.2528 10.3595 24.4309C10.1916 24.6091 9.96087 24.7147 9.7163 24.7254C9.4103 24.7374 8.9793 24.7504 8.3613 24.7674C8.3583 24.5574 8.3643 23.7844 8.3643 23.7844ZM21.4293 48.7064C21.9673 48.7065 22.4995 48.5951 22.9923 48.3794L38.6343 41.5334C39.7328 41.0525 40.6673 40.2619 41.3235 39.2582C41.9798 38.2546 42.3293 37.0815 42.3293 35.8824V9.70437L22.9933 1.24137C22.5002 1.02598 21.9679 0.914795 21.4298 0.914795C20.8917 0.914795 20.3594 1.02598 19.8663 1.24137L4.2243 8.08737C3.1259 8.56809 2.19143 9.35852 1.53519 10.362C0.878951 11.3654 0.5294 12.5384 0.529297 13.7374V39.9164L19.8653 48.3794C20.3585 48.5951 20.891 48.7065 21.4293 48.7064ZM1.3293 13.7384C1.32931 12.6946 1.6335 11.6735 2.20466 10.7999C2.77582 9.92626 3.58919 9.23803 4.5453 8.81937L20.1863 1.97337C20.5784 1.80235 21.0015 1.71407 21.4293 1.71407C21.8571 1.71407 22.2802 1.80235 22.6723 1.97337L41.5293 10.2274V35.8824C41.5293 36.9261 41.2251 37.9473 40.6539 38.8209C40.0828 39.6945 39.2694 40.3827 38.3133 40.8014L22.6723 47.6474C22.2802 47.8184 21.8571 47.9067 21.4293 47.9067C21.0015 47.9067 20.5784 47.8184 20.1863 47.6474L1.3293 39.3934V13.7384ZM23.6923 41.6784C27.4703 41.5124 27.7543 40.9284 27.8623 40.7084L27.9413 40.5444L27.2653 38.9604C27.1722 38.6494 26.9796 38.3775 26.7172 38.1864C26.4547 37.9953 26.1369 37.8955 25.8123 37.9024H24.4683V37.0454C27.5354 36.436 30.2956 34.7803 32.2774 32.3614C34.2591 29.9425 35.3393 26.9104 35.3333 23.7834C35.3328 23.2117 35.2967 22.6406 35.2253 22.0734C36.1773 20.6014 36.3703 18.6424 35.6443 17.6394C34.8446 16.5372 33.6974 15.7359 32.3873 15.3644C29.9998 12.5224 26.6541 10.6533 22.9823 10.1104L22.5293 10.0504V13.8954L22.8613 13.9534C24.6445 14.2703 26.3151 15.0443 27.7098 16.1996C29.1046 17.355 30.176 18.8523 30.8193 20.5454C27.4613 24.3944 15.8243 27.5924 6.6023 27.1554C6.53613 27.15 6.46957 27.1586 6.4069 27.1805C6.34422 27.2023 6.28679 27.237 6.2383 27.2824L6.0813 27.4624L6.0713 27.6284C6.06565 27.7307 6.09146 27.8323 6.14527 27.9196C6.19908 28.0068 6.27831 28.0755 6.3723 28.1164C7.1673 28.4624 7.9863 28.7724 8.8103 29.0364C9.89458 31.0822 11.4147 32.865 13.2634 34.2591C15.1121 35.6532 17.2442 36.6244 19.5093 37.1044V37.9024H18.1423C17.8203 37.8813 17.5008 37.9706 17.2363 38.1555C16.9718 38.3403 16.7782 38.6098 16.6873 38.9194L15.9893 40.5644L16.0943 40.7394C16.5963 41.5754 20.0153 41.7054 22.0933 41.7054C23.0133 41.7054 23.6713 41.6794 23.6923 41.6784ZM16.9223 40.4114L17.4403 39.1854C17.4838 39.0397 17.575 38.9129 17.6992 38.8253C17.8234 38.7377 17.9735 38.6944 18.1253 38.7024H19.6983C19.8601 38.7018 20.0151 38.6373 20.1294 38.5228C20.2437 38.4083 20.308 38.2532 20.3083 38.0914V37.0064C20.3086 36.8444 20.2513 36.6877 20.1467 36.564C20.0422 36.4404 19.897 36.3579 19.7373 36.3314C17.5565 35.8712 15.5044 34.9343 13.7282 33.5878C11.952 32.2414 10.4956 30.5188 9.4633 28.5434L9.3893 28.3804L9.2193 28.3274C8.88899 28.224 8.56092 28.1137 8.2353 27.9964C17.6083 28.0464 28.4133 24.8064 31.5783 20.8834L31.7123 20.7184L31.6503 20.5144C31.0077 18.6863 29.9041 17.0551 28.4464 15.7785C26.9887 14.5019 25.2261 13.6232 23.3293 13.2274V10.9734C26.6666 11.5774 29.6817 13.3447 31.8393 15.9614L31.9233 16.0684L32.0553 16.1024C33.2383 16.4097 34.2777 17.1189 34.9953 18.1084C35.5323 18.8484 35.2853 20.5834 34.4793 21.7484L34.3913 21.8764L34.4123 22.0314C34.4926 22.6126 34.5334 23.1986 34.5343 23.7854C34.5399 26.7423 33.513 29.6085 31.6309 31.8891C29.7488 34.1698 27.1296 35.7218 24.2253 36.2774C24.0686 36.3072 23.9273 36.3907 23.8256 36.5136C23.7239 36.6364 23.6683 36.7909 23.6683 36.9504V38.0904C23.6683 38.2523 23.7325 38.4077 23.8468 38.5224C23.9612 38.6371 24.1163 38.7018 24.2783 38.7024H25.8243C25.9825 38.698 26.1375 38.7482 26.2631 38.8445C26.3887 38.9408 26.4774 39.0774 26.5143 39.2314L27.0173 40.4164C25.376 40.8575 23.6732 41.0258 21.9773 40.9144C20.2771 40.9933 18.5736 40.8238 16.9223 40.4114Z" fill="#155197"/>
</svg>
