<svg width="44" height="44" viewBox="0 0 44 44" fill="none" xmlns="http://www.w3.org/2000/svg">
<path d="M10.8434 30.6745L8.36642 36.6545L7.62642 36.3475L9.97642 30.6745H10.8434ZM8.45042 24.8175C9.88313 24.8265 11.2981 24.5005 12.5824 23.8655C14.8424 24.8639 17.3966 24.9697 19.7314 24.1615C19.9364 24.1955 20.1504 24.2215 20.3584 24.2515L20.6744 23.4895C20.2124 23.4225 20.1244 23.4165 19.6584 23.3365C18.5447 23.7507 17.3599 23.9395 16.1726 23.8919C14.9854 23.8444 13.8194 23.5614 12.7424 23.0595L12.5594 22.9735L12.3824 23.0685C11.1695 23.7026 9.81909 24.0285 8.45042 24.0175C4.70542 24.0175 1.65742 21.7295 1.65742 18.9175C1.65742 16.6975 3.63442 14.6925 6.46542 14.0415L6.79742 13.9655C6.78742 13.8225 6.77742 13.6025 6.75742 13.4725C6.7507 13.4318 6.74669 13.3907 6.74542 13.3495C6.74559 12.7704 6.86359 12.1973 7.09224 11.6653C7.32089 11.1332 7.6554 10.6532 8.07542 10.2545C8.49544 9.85583 8.99219 9.54676 9.53544 9.34613C10.0787 9.14549 10.6571 9.05749 11.2354 9.08747C10.9476 9.72988 10.8042 10.4276 10.8154 11.1315L11.6154 11.1145C11.6154 10.2505 11.878 9.40684 12.3684 8.69547C12.4284 8.60547 12.4824 8.51147 12.5484 8.42447C12.7088 8.20963 12.8839 8.00615 13.0724 7.81547C13.3761 7.52223 13.7014 7.25214 14.0454 7.00747C14.2896 6.83901 14.5438 6.6854 14.8064 6.54747C14.8984 6.50047 14.9964 6.46047 15.0904 6.41647C16.2248 5.85191 17.482 5.57868 18.7484 5.62146C20.0148 5.66423 21.2507 6.02165 22.3444 6.66147L22.7824 5.99147C21.2562 5.04844 19.454 4.65406 17.6734 4.87347C20.3634 0.981472 26.1784 0.600472 30.0664 4.10547C31.6705 5.53067 32.7237 7.47352 33.0424 9.59547C32.3009 9.67051 31.5816 9.89161 30.926 10.246C30.2703 10.6005 29.6913 11.0812 29.2224 11.6605L29.8434 12.1655C30.3425 11.5644 30.9779 11.0911 31.6969 10.7853C32.4158 10.4794 33.1974 10.3496 33.9766 10.4069C34.7558 10.4641 35.51 10.7066 36.1765 11.1143C36.843 11.5219 37.4025 12.0829 37.8084 12.7505L37.9734 12.7845C40.9034 13.3825 42.9504 15.6225 42.9504 18.2295C42.9504 22.1615 38.2944 25.0325 33.8074 23.3235C32.7242 23.513 31.6331 23.6548 30.5374 23.7485L30.1914 24.5815C31.3768 24.4914 32.5573 24.3469 33.7294 24.1485C34.6143 24.4684 35.5485 24.6308 36.4894 24.6285C40.4934 24.6285 43.7494 21.7585 43.7494 18.2285C43.6853 16.7284 43.1091 15.2956 42.1169 14.1687C41.1246 13.0419 39.7763 12.289 38.2964 12.0355C38.1563 11.8325 38.0033 11.6388 37.8384 11.4555L37.8484 11.4475C36.8659 10.3578 35.4999 9.6906 34.0364 9.58547C33.9764 9.58047 33.9164 9.56947 33.8564 9.56747C33.5245 7.22644 32.3711 5.07964 30.6024 3.51047C26.1704 -0.486528 19.3904 0.165472 16.6184 5.04547C15.1465 5.35846 13.7864 6.0629 12.6814 7.08447C12.6304 7.13347 12.5754 7.17947 12.5254 7.22947C12.2206 7.53596 11.9469 7.87194 11.7084 8.23247C11.6884 8.26247 11.6644 8.29047 11.6444 8.32147C10.9315 8.23218 10.2078 8.29545 9.52121 8.50709C8.83463 8.71873 8.20088 9.07391 7.66198 9.54907C7.12309 10.0242 6.69136 10.6085 6.39542 11.2632C6.09948 11.9179 5.94609 12.628 5.94542 13.3465C2.88742 14.1695 0.857422 16.3735 0.857422 18.9165C0.857422 22.1695 4.26342 24.8175 8.45042 24.8175ZM14.9764 30.6745L10.0804 42.4945L10.8204 42.8005L15.8434 30.6745H14.9764ZM35.9764 30.6745L31.8924 40.5345L32.6324 40.8405L36.8424 30.6745H35.9764ZM19.0984 32.7945L16.9304 38.0295L17.6694 38.3355L19.9644 32.7955L19.0984 32.7945ZM31.7604 26.8945H26.9604L29.0034 21.9635L28.2634 21.6575L25.7634 27.6945H30.5634L25.6674 39.5145V29.8945H21.1594L24.4454 21.9645L23.7054 21.6575L19.9624 30.6945H24.8674V43.5355L31.7604 26.8945Z" fill="#155197"/>
</svg>
