<svg width="49" height="49" viewBox="0 0 49 49" fill="none" xmlns="http://www.w3.org/2000/svg">
<path d="M7.53555 19.9104H9.43555V20.7104H8.33555V21.8104H7.53555V19.9104ZM4.53555 15.8104H5.33555V14.7104H6.43555V13.9104H4.53555V15.8104ZM7.53555 18.8104H8.33555V17.7104H9.43555V16.9104H7.53555V18.8104ZM23.3355 16.8104H22.5355V23.8104H22.6975C22.9045 23.6704 23.1195 23.5434 23.3355 23.4204V16.8104ZM20.5355 23.8104H21.3355V16.8104H20.5355V23.8104ZM4.53555 18.8104H5.33555V17.7104H6.43555V16.9104H4.53555V18.8104ZM4.53555 21.8104H5.33555V20.7104H6.43555V19.9104H4.53555V21.8104ZM24.5355 22.8384C24.7985 22.7334 25.0645 22.6374 25.3355 22.5564V16.8104H24.5355V22.8384ZM14.4355 9.7104H16.4355V8.9104H14.4355V9.7104ZM14.4355 5.7104H16.4355V4.9104H14.4355V5.7104ZM14.4355 7.7104H16.4355V6.9104H14.4355V7.7104ZM18.9685 28.7104H0.435547V27.9104H1.53555V10.9104H3.53555V9.9104H8.33555V10.9104H9.53555V6.1444L12.5355 3.1444V0.9104H19.3355V13.9664L22.9355 11.8464L28.3355 15.0264V22.1594C28.2635 22.1574 28.1935 22.1494 28.1215 22.1494C27.9245 22.1494 27.7305 22.1664 27.5355 22.1784V15.4834L22.9355 12.7744L18.3355 15.4834V27.9104H19.2835C19.1666 28.1722 19.0615 28.4392 18.9685 28.7104ZM11.5355 13.4764L9.76955 11.7104H7.53555V10.7104H4.33555V11.7104H2.33555V27.9104H11.5355V13.4764ZM17.5355 15.0264L18.5355 14.4364V1.7104H13.3355V3.4764L10.3355 6.4764V11.1444L12.3355 13.1444V27.9104H17.5355V15.0264ZM7.53555 15.8104H8.33555V14.7104H9.43555V13.9104H7.53555V15.8104ZM14.4355 11.7104H16.4355V10.9104H14.4355V11.7104ZM14.4355 15.7104H16.4355V14.9104H14.4355V15.7104ZM14.4355 13.7104H16.4355V12.9104H14.4355V13.7104Z" fill="#155197"/>
<path d="M46.1135 26.4712C44.69 25.0506 42.7611 24.2528 40.75 24.2528C38.739 24.2528 36.8101 25.0506 35.3865 26.4712L34.4355 27.4212L33.4855 26.4712C32.2406 25.2239 30.6 24.4492 28.8458 24.2803C27.0915 24.1114 25.3333 24.5589 23.8732 25.5458C22.4131 26.5327 21.3425 27.9974 20.8452 29.6881C20.348 31.3788 20.4552 33.19 21.1485 34.8102H22.0285C21.3249 33.368 21.1554 31.7231 21.55 30.1678C21.9447 28.6124 22.8779 27.2473 24.184 26.3151C25.4901 25.3828 27.0844 24.9438 28.6836 25.076C30.2828 25.2082 31.7833 25.9031 32.9185 27.0372L34.4355 28.5532L35.9515 27.0372C37.2278 25.7825 38.948 25.0828 40.7376 25.0904C42.5273 25.098 44.2415 25.8123 45.5071 27.0777C46.7726 28.3431 47.487 30.0572 47.4948 31.8469C47.5026 33.6366 46.8031 35.3568 45.5485 36.6332L34.4355 47.7452L24.5005 37.8102H23.3695L34.4355 48.8772L46.1135 37.1982C47.5339 35.7746 48.3315 33.8457 48.3315 31.8347C48.3315 29.8237 47.5339 27.8948 46.1135 26.4712ZM39.5845 35.9112L37.0545 27.8322L32.5185 41.2802L28.6945 31.2142L26.8055 35.9102H17.4355V36.7102H27.3475L28.6725 33.4122L32.5625 43.6502L37.0265 30.4192L38.9965 36.7092H43.4355V35.9102L39.5845 35.9112Z" fill="#155197"/>
</svg>
