<svg width="58" height="51" viewBox="0 0 58 51" fill="none" xmlns="http://www.w3.org/2000/svg">
<path d="M56.6478 10.8282L56.0818 10.2622L31.8388 34.5052C31.3397 34.1215 30.7284 33.9125 30.0988 33.9102C29.5253 33.9102 28.9646 34.0803 28.4877 34.3989C28.0108 34.7176 27.6391 35.1705 27.4196 35.7004C27.2001 36.2303 27.1427 36.8134 27.2546 37.3759C27.3665 37.9385 27.6427 38.4552 28.0482 38.8608C28.4538 39.2664 28.9705 39.5426 29.5331 39.6545C30.0956 39.7664 30.6787 39.7089 31.2086 39.4894C31.7385 39.2699 32.1914 38.8982 32.5101 38.4213C32.8288 37.9444 32.9988 37.3838 32.9988 36.8102C32.9966 36.1807 32.7875 35.5693 32.4038 35.0702L56.6478 10.8282ZM30.0988 38.9102C29.6835 38.9102 29.2775 38.787 28.9321 38.5563C28.5868 38.3255 28.3176 37.9975 28.1587 37.6138C27.9997 37.2301 27.9582 36.8079 28.0392 36.4005C28.1202 35.9931 28.3202 35.619 28.6139 35.3253C28.9076 35.0316 29.2818 34.8316 29.6891 34.7505C30.0965 34.6695 30.5187 34.7111 30.9025 34.87C31.2862 35.029 31.6142 35.2981 31.8449 35.6435C32.0757 35.9888 32.1988 36.3948 32.1988 36.8102C32.198 37.3669 31.9765 37.9006 31.5829 38.2942C31.1892 38.6879 30.6556 38.9094 30.0988 38.9102ZM0.998839 29.7872C0.989099 33.4739 1.70938 37.126 3.11814 40.5329C4.5269 43.9398 6.59625 47.034 9.20684 49.6372L8.64084 50.2032C5.93324 47.486 3.79357 44.257 2.34652 40.7045C0.899476 37.152 0.174002 33.347 0.212385 29.5113C0.250767 25.6756 1.05224 21.8858 2.57008 18.363C4.08793 14.8402 6.29179 11.6547 9.05322 8.99219C11.8146 6.32971 15.0784 4.2435 18.6543 2.85515C22.2301 1.46681 26.0465 0.804093 29.8811 0.905638C33.7157 1.00718 37.4917 1.87096 40.9891 3.44661C44.4864 5.02227 47.6352 7.27829 50.2518 10.0832L49.6668 10.6302C45.8202 6.50089 40.8196 3.62526 35.3159 2.37767C29.8121 1.13008 24.0603 1.56831 18.8091 3.63531C13.5579 5.70232 9.05066 9.30234 5.87406 13.9667C2.69745 18.6311 0.998661 24.1438 0.998839 29.7872ZM49.3968 50.3702L48.8348 49.8002C57.0598 41.6722 59.4248 29.6962 55.0058 18.5482L55.7498 18.2532C60.2888 29.7052 57.8548 42.0112 49.3968 50.3702ZM46.9988 47.0942L46.7288 47.3732L40.0868 41.3382L40.6248 40.7472L46.6918 46.2572C49.7534 42.9809 51.8484 38.9212 52.745 34.5276C53.6416 30.1341 53.3048 25.5781 51.7718 21.3642L52.5298 21.1062C54.1353 25.521 54.4681 30.2981 53.4904 34.893C52.5127 39.4878 50.2627 43.7155 46.9988 47.0942ZM12.8718 11.9842L19.0818 18.1942L18.5158 18.7592L12.2928 12.5362C7.84829 16.8524 5.24294 22.7187 5.02084 28.9102H14.0988V29.7102H5.00084L4.99884 29.7862C4.98212 36.0325 7.40729 42.0381 11.7568 46.5212L17.5638 40.7152L18.1288 41.2802L11.7538 47.6552L11.4708 47.3722C9.13437 45.0264 7.2892 42.2381 6.04328 39.1706C4.79736 36.103 4.17571 32.8178 4.21472 29.5072C4.25372 26.1965 4.95258 22.9269 6.27042 19.8895C7.58826 16.8522 9.49861 14.1082 11.8897 11.8181C14.2808 9.52791 17.1046 7.73762 20.1959 6.55193C23.2872 5.36625 26.5839 4.80897 29.8932 4.91272C33.2025 5.01646 36.4578 5.77914 39.4688 7.15613C42.4798 8.53312 45.1859 10.4968 47.4288 12.9322L46.8388 13.4742C42.7157 9.00522 37.0599 6.2541 30.9988 5.76919V12.8102H30.1988V5.71419C29.8324 5.69608 29.4657 5.68641 29.0988 5.68519C23.0923 5.68083 17.3023 7.92838 12.8718 11.9842Z" fill="#062E61"/>
</svg>
