<svg width="30" height="44" viewBox="0 0 30 44" fill="none" xmlns="http://www.w3.org/2000/svg">
<path d="M26.3309 5.81016C26.3309 4.84103 26.0435 3.89367 25.5051 3.08786C24.9667 2.28206 24.2014 1.65402 23.3061 1.28315C22.4107 0.912279 21.4255 0.815243 20.475 1.00431C19.5245 1.19338 18.6514 1.66006 17.9661 2.34534C17.2808 3.03061 16.8141 3.90371 16.6251 4.85422C16.436 5.80472 16.533 6.78995 16.9039 7.68531C17.2748 8.58067 17.9028 9.34594 18.7086 9.88436C19.5144 10.4228 20.4618 10.7102 21.4309 10.7102C22.73 10.7086 23.9754 10.1918 24.894 9.27323C25.8126 8.35464 26.3293 7.10923 26.3309 5.81016ZM17.3309 5.81016C17.3309 4.99925 17.5714 4.20656 18.0219 3.53232C18.4724 2.85808 19.1127 2.33257 19.8619 2.02225C20.6111 1.71193 21.4355 1.63074 22.2308 1.78894C23.0261 1.94714 23.7567 2.33763 24.3301 2.91102C24.9034 3.48442 25.2939 4.21497 25.4521 5.01029C25.6103 5.80561 25.5291 6.62998 25.2188 7.37916C24.9085 8.12834 24.383 8.76867 23.7088 9.21918C23.0345 9.6697 22.2418 9.91016 21.4309 9.91016C20.3438 9.9091 19.3016 9.4768 18.5329 8.70813C17.7643 7.93946 17.332 6.89722 17.3309 5.81016ZM29.1139 17.3132L29.8249 25.3032C29.8505 25.7701 29.7134 26.2316 29.437 26.6088C29.1605 26.9861 28.7619 27.2558 28.3089 27.3722L28.3419 28.7162C28.3411 29.0902 28.2343 29.4563 28.0339 29.7722C27.9134 29.3474 27.7471 28.937 27.5379 28.5482L27.4999 27.0242C27.4987 26.9708 27.5082 26.9178 27.5277 26.8682C27.5473 26.8185 27.5765 26.7733 27.6138 26.7351C27.651 26.6969 27.6955 26.6666 27.7447 26.6458C27.7938 26.625 27.8466 26.6143 27.8999 26.6142C28.0541 26.6149 28.2065 26.5814 28.3462 26.5163C28.4859 26.4511 28.6094 26.3558 28.7079 26.2372C28.8196 26.1234 28.9059 25.9871 28.9611 25.8375C29.0162 25.6879 29.039 25.5282 29.0279 25.3692L28.3159 17.3762C28.2189 16.3602 27.742 15.4182 26.9806 14.7386C26.2192 14.059 25.2294 13.6917 24.2089 13.7102H18.4409C17.8065 13.7141 17.181 13.8608 16.6109 14.1392C16.4559 13.9145 16.2865 13.7 16.1039 13.4972C16.8237 13.1147 17.6258 12.9133 18.4409 12.9102H24.2079C25.4296 12.8918 26.6133 13.335 27.5226 14.1512C28.4318 14.9674 29.0007 16.0965 29.1139 17.3132ZM13.3309 5.81016C13.3309 4.84103 13.0435 3.89367 12.5051 3.08786C11.9667 2.28206 11.2014 1.65402 10.3061 1.28315C9.4107 0.912279 8.42548 0.815243 7.47497 1.00431C6.52446 1.19338 5.65137 1.66006 4.96609 2.34534C4.28081 3.03061 3.81413 3.90371 3.62506 4.85422C3.436 5.80472 3.53303 6.78995 3.9039 7.68531C4.27477 8.58067 4.90282 9.34594 5.70862 9.88436C6.51442 10.4228 7.46178 10.7102 8.43091 10.7102C9.72998 10.7086 10.9754 10.1918 11.894 9.27323C12.8126 8.35464 13.3293 7.10923 13.3309 5.81016ZM4.33091 5.81016C4.33091 4.99925 4.57137 4.20656 5.02189 3.53232C5.4724 2.85808 6.11273 2.33257 6.86191 2.02225C7.61109 1.71193 8.43546 1.63074 9.23078 1.78894C10.0261 1.94714 10.7567 2.33763 11.33 2.91102C11.9034 3.48442 12.2939 4.21497 12.4521 5.01029C12.6103 5.80561 12.5291 6.62998 12.2188 7.37916C11.9085 8.12834 11.383 8.76867 10.7087 9.21918C10.0345 9.6697 9.24181 9.91016 8.43091 9.91016C7.34385 9.9091 6.30161 9.4768 5.53294 8.70813C4.76427 7.93946 4.33197 6.89722 4.33091 5.81016ZM2.87791 29.7022C2.71181 29.9184 2.56047 30.1456 2.42491 30.3822C2.14785 30.2036 1.9199 29.9585 1.76182 29.6692C1.60375 29.38 1.52059 29.0558 1.51991 28.7262L1.55291 27.3722C1.10072 27.256 0.702622 26.987 0.42613 26.6108C0.149637 26.2346 0.0117698 25.7744 0.0359109 25.3082L0.748911 17.3062C0.863491 16.0909 1.43192 14.9635 2.34084 14.1487C3.24977 13.3339 4.4324 12.8917 5.65291 12.9102H11.2089C12.3402 12.8986 13.4401 13.2817 14.3194 13.9935C15.1988 14.7053 15.8026 15.7013 16.0269 16.8102H15.2179C14.9973 15.9168 14.481 15.1243 13.753 14.5615C13.025 13.9987 12.128 13.6987 11.2079 13.7102H5.65291C4.63329 13.6911 3.644 14.0574 2.88265 14.7359C2.1213 15.4143 1.64394 16.3551 1.54591 17.3702L0.833911 25.3732C0.823169 25.5318 0.846131 25.6908 0.901285 25.8399C0.95644 25.989 1.04254 26.1247 1.15391 26.2382C1.25245 26.3566 1.37602 26.4518 1.51573 26.5168C1.65544 26.5818 1.80782 26.6151 1.96191 26.6142C2.01525 26.6143 2.06804 26.625 2.11717 26.6458C2.1663 26.6666 2.21079 26.6969 2.24804 26.7351C2.28529 26.7733 2.31455 26.8185 2.3341 26.8682C2.35365 26.9178 2.36311 26.9708 2.36191 27.0242L2.31991 28.7362C2.32331 28.9313 2.37631 29.1224 2.47393 29.2914C2.57155 29.4603 2.71057 29.6017 2.87791 29.7022ZM20.4159 17.9102C19.6446 17.9102 18.8905 18.1389 18.2492 18.5674C17.6078 18.996 17.108 19.6051 16.8128 20.3177C16.5176 21.0303 16.4404 21.8145 16.5908 22.571C16.7413 23.3275 17.1128 24.0224 17.6582 24.5679C18.2036 25.1133 18.8985 25.4847 19.6551 25.6352C20.4116 25.7857 21.1957 25.7085 21.9084 25.4133C22.621 25.1181 23.2301 24.6182 23.6586 23.9769C24.0872 23.3355 24.3159 22.5815 24.3159 21.8102C24.3146 20.7762 23.9033 19.785 23.1722 19.0539C22.4411 18.3228 21.4499 17.9115 20.4159 17.9102ZM23.5159 21.8102C23.5159 22.4233 23.3341 23.0226 22.9935 23.5324C22.6528 24.0422 22.1687 24.4396 21.6022 24.6742C21.0358 24.9088 20.4125 24.9702 19.8111 24.8506C19.2098 24.731 18.6574 24.4357 18.2239 24.0022C17.7903 23.5686 17.4951 23.0163 17.3755 22.4149C17.2559 21.8136 17.3173 21.1903 17.5519 20.6238C17.7865 20.0574 18.1839 19.5732 18.6936 19.2326C19.2034 18.892 19.8028 18.7102 20.4159 18.7102C21.2378 18.711 22.0259 19.0378 22.6071 19.619C23.1883 20.2002 23.5151 20.9882 23.5159 21.8102ZM26.6559 31.1282L27.2979 36.6542C27.3185 36.9148 27.2853 37.1769 27.2006 37.4243C27.1158 37.6716 26.9811 37.8989 26.8049 38.0922C26.6302 38.2827 26.418 38.4349 26.1815 38.5392C25.945 38.6435 25.6894 38.6977 25.4309 38.6982H25.3309V41.8742C25.3301 42.3609 25.1364 42.8274 24.7923 43.1715C24.4481 43.5157 23.9816 43.7094 23.4949 43.7102H17.3669C17.0534 43.7095 16.7453 43.6283 16.4721 43.4744C16.199 43.3204 15.9699 43.099 15.8069 42.8312C15.8952 42.547 15.9456 42.2525 15.9569 41.9552C16.0862 41.8881 16.2111 41.8129 16.3309 41.7302V41.8742C16.3312 42.1488 16.4404 42.4122 16.6346 42.6064C16.8289 42.8007 17.0922 42.9099 17.3669 42.9102H23.4949C23.7696 42.9099 24.0329 42.8007 24.2272 42.6064C24.4214 42.4122 24.5306 42.1488 24.5309 41.8742V37.8972H25.4309C25.5786 37.8968 25.7245 37.8658 25.8596 37.8063C25.9947 37.7467 26.116 37.6599 26.2159 37.5512C26.3169 37.4406 26.3942 37.3105 26.4433 37.169C26.4923 37.0275 26.5119 36.8775 26.5009 36.7282L25.8599 31.2012C25.8032 30.2623 25.3925 29.38 24.7106 28.7323C24.0287 28.0845 23.1264 27.7196 22.1859 27.7112H18.6759C18.0856 27.7137 17.5047 27.8586 16.9824 28.1337C16.4601 28.4088 16.0119 28.8058 15.6759 29.2912C15.4925 29.0917 15.296 28.9047 15.0879 28.7312C15.5023 28.1686 16.0427 27.711 16.6658 27.3948C17.2888 27.0786 17.9772 26.9126 18.6759 26.9102H22.1859C23.3261 26.9184 24.4208 27.3579 25.2501 28.1404C26.0794 28.9229 26.5816 29.9904 26.6559 31.1282ZM9.44291 27.7102C10.2143 27.7102 10.9683 27.4814 11.6096 27.0529C12.251 26.6244 12.7509 26.0153 13.046 25.3026C13.3412 24.59 13.4185 23.8058 13.268 23.0493C13.1175 22.2928 12.7461 21.5979 12.2006 21.0524C11.6552 20.507 10.9603 20.1356 10.2038 19.9851C9.44724 19.8346 8.66308 19.9118 7.95045 20.207C7.23781 20.5022 6.62872 21.0021 6.20018 21.6434C5.77164 22.2848 5.54291 23.0388 5.54291 23.8102C5.54424 24.8441 5.95555 25.8353 6.68666 26.5664C7.41776 27.2975 8.40897 27.7088 9.44291 27.7102ZM6.34291 23.8102C6.34291 23.197 6.52472 22.5977 6.86536 22.0879C7.20599 21.5781 7.69014 21.1808 8.25659 20.9461C8.82304 20.7115 9.44635 20.6501 10.0477 20.7697C10.649 20.8893 11.2014 21.1846 11.6349 21.6181C12.0685 22.0517 12.3637 22.604 12.4833 23.2054C12.603 23.8067 12.5416 24.43 12.3069 24.9965C12.0723 25.5629 11.675 26.0471 11.1652 26.3877C10.6554 26.7283 10.056 26.9102 9.44291 26.9102C8.62098 26.9094 7.83295 26.5825 7.25176 26.0013C6.67057 25.4201 6.34371 24.6321 6.34291 23.8102ZM14.3579 41.8742V40.6982H14.4579C14.7162 40.6975 14.9716 40.6433 15.2079 40.539C15.4442 40.4347 15.6564 40.2826 15.8309 40.0922C16.0073 39.899 16.1421 39.6718 16.2271 39.4244C16.3121 39.1771 16.3454 38.9149 16.3249 38.6542L15.6829 33.1282C15.6086 31.9904 15.1064 30.9229 14.2771 30.1404C13.4478 29.3579 12.3531 28.9184 11.2129 28.9102H7.70291C6.56565 28.9171 5.47305 29.3537 4.64422 30.1325C3.81539 30.9112 3.31161 31.9745 3.23391 33.1092L2.58991 38.6712C2.5713 38.9292 2.60551 39.1882 2.69045 39.4326C2.77538 39.6769 2.90927 39.9013 3.08391 40.0922C3.44677 40.463 3.9384 40.68 4.45691 40.6982H4.55791V41.8742C4.5587 42.3609 4.7524 42.8274 5.09654 43.1715C5.44068 43.5157 5.90722 43.7094 6.39391 43.7102H12.5219C13.0086 43.7094 13.4751 43.5157 13.8193 43.1715C14.1634 42.8274 14.3571 42.3609 14.3579 41.8742ZM13.5579 39.8972V41.8742C13.5576 42.1488 13.4484 42.4122 13.2542 42.6064C13.06 42.8007 12.7966 42.9099 12.5219 42.9102H6.39391C6.11923 42.9099 5.85587 42.8007 5.66164 42.6064C5.46741 42.4122 5.35818 42.1488 5.35791 41.8742V39.8972H4.45791C4.16309 39.8802 3.88432 39.7573 3.67291 39.5512C3.57345 39.4431 3.49678 39.3162 3.44747 39.1779C3.39816 39.0396 3.37722 38.8927 3.38591 38.7462L4.03091 33.1812C4.09127 32.246 4.50337 31.3683 5.18438 30.7246C5.8654 30.0809 6.76484 29.7188 7.70191 29.7112H11.2129C12.1534 29.7196 13.0557 30.0845 13.7376 30.7323C14.4195 31.38 14.8302 32.2623 14.8869 33.2012L15.5279 38.7282C15.5389 38.8775 15.5193 39.0275 15.4703 39.169C15.4212 39.3105 15.3439 39.4406 15.2429 39.5512C15.143 39.6599 15.0217 39.7467 14.8866 39.8063C14.7515 39.8658 14.6055 39.8968 14.4579 39.8972H13.5579Z" fill="#155197"/>
</svg>
