<svg width="40" height="45" viewBox="0 0 40 45" fill="none" xmlns="http://www.w3.org/2000/svg">
<path d="M24.839 13.9105C25.9574 13.9127 27.0331 14.34 27.8483 15.1057C28.6634 15.8715 29.157 16.9184 29.229 18.0345L29.273 18.7175C29.023 18.7125 28.797 18.7105 28.599 18.7105H28.47L28.431 18.0845C28.3724 17.171 27.9685 16.3141 27.3012 15.6875C26.634 15.061 25.7534 14.7116 24.838 14.7105H18.36C18.279 14.7105 18.199 14.7125 18.12 14.7185C18.022 14.7255 17.927 14.7475 17.83 14.7595C17.9986 14.486 18.1515 14.2033 18.288 13.9125L18.36 13.9105H24.839ZM17.273 4.74348C17.5947 3.85534 18.1819 3.08774 18.955 2.54498C19.728 2.00221 20.6495 1.71059 21.594 1.70974C22.5386 1.70889 23.4606 1.99886 24.2346 2.54023C25.0087 3.08161 25.5973 3.84816 25.9205 4.73572C26.2437 5.62328 26.2859 6.58883 26.0412 7.50118C25.7965 8.41353 25.277 9.22844 24.553 9.8352C23.8291 10.442 22.9359 10.8112 21.9949 10.8926C21.0538 10.9741 20.1105 10.7638 19.293 10.2905C19.223 10.2505 19.159 10.2005 19.091 10.1585C19.092 10.2085 19.099 10.2585 19.099 10.3105C19.099 10.5655 19.077 10.8145 19.055 11.0645C20.0181 11.5815 21.1155 11.7939 22.202 11.6736C23.2884 11.5534 24.3127 11.1061 25.1395 10.391C25.9662 9.67592 26.5563 8.72668 26.8318 7.66888C27.1073 6.61108 27.0552 5.49457 26.6823 4.46704C26.3094 3.43952 25.6334 2.54941 24.7436 1.91446C23.8539 1.27952 22.7923 0.92966 21.6994 0.911173C20.6065 0.892686 19.5337 1.20644 18.6229 1.81093C17.7122 2.41542 17.0064 3.28216 16.599 4.29648C16.8125 4.51097 17.0145 4.73662 17.204 4.97248C17.228 4.89648 17.244 4.81848 17.272 4.74248L17.273 4.74348ZM4.57704 41.9105C4.15853 41.9105 3.75716 41.7442 3.46122 41.4483C3.16529 41.1524 2.99904 40.751 2.99904 40.3325V37.9105H2.59904C2.38214 37.9107 2.16754 37.8661 1.96869 37.7795C1.76984 37.6929 1.59102 37.5661 1.44344 37.4072C1.29585 37.2482 1.18269 37.0605 1.11104 36.8558C1.03938 36.6511 1.01079 36.4338 1.02704 36.2175L1.88904 24.4425C1.97946 23.16 2.55186 21.9592 3.49124 21.0814C4.43061 20.2037 5.66737 19.7139 6.95304 19.7105H14.134C15.3123 19.7159 16.4513 20.1341 17.353 20.8925C17.596 20.7465 17.853 20.6095 18.123 20.4825C17.0397 19.4734 15.6145 18.9118 14.134 18.9105H6.95404C5.46606 18.9145 4.03465 19.4811 2.94703 20.4966C1.85941 21.5121 1.19605 22.9013 1.09004 24.3855L0.229037 36.1605C0.185779 36.7498 0.363601 37.3342 0.727823 37.7995C1.09205 38.2649 1.61655 38.5779 2.19904 38.6775V40.3335C2.2001 40.9639 2.45114 41.5682 2.89712 42.0138C3.3431 42.4594 3.9476 42.71 4.57804 42.7105H15.406C15.2877 42.4558 15.2027 42.1869 15.153 41.9105H4.57704ZM4.19904 10.3105C4.19904 9.04468 4.57439 7.80731 5.27763 6.75484C5.98087 5.70236 6.98042 4.88206 8.14986 4.39766C9.31931 3.91325 10.6061 3.78651 11.8476 4.03346C13.0891 4.2804 14.2295 4.88994 15.1245 5.785C16.0196 6.68006 16.6291 7.82043 16.8761 9.06191C17.123 10.3034 16.9963 11.5902 16.5119 12.7597C16.0275 13.9291 15.2072 14.9286 14.1547 15.6319C13.1022 16.3351 11.8648 16.7105 10.599 16.7105C8.90222 16.7086 7.27543 16.0338 6.0756 14.8339C4.87577 13.6341 4.20089 12.0073 4.19904 10.3105ZM4.99904 10.3105C4.99904 11.4181 5.32747 12.5008 5.94281 13.4217C6.55814 14.3426 7.43274 15.0604 8.45601 15.4842C9.47928 15.9081 10.6052 16.019 11.6915 15.8029C12.7778 15.5868 13.7757 15.0535 14.5588 14.2703C15.342 13.4871 15.8754 12.4893 16.0914 11.403C16.3075 10.3167 16.1966 9.19072 15.7728 8.16746C15.3489 7.14419 14.6311 6.26959 13.7102 5.65425C12.7893 5.03892 11.7066 4.71048 10.599 4.71048C9.11431 4.71207 7.69085 5.30258 6.64099 6.35244C5.59113 7.4023 5.00063 8.82576 4.99904 10.3105ZM39.999 24.3105V41.3105C39.999 43.5185 34.125 44.7105 28.599 44.7105C23.073 44.7105 17.199 43.5185 17.199 41.3105V24.3105C17.199 22.1025 23.073 20.9105 28.599 20.9105C34.125 20.9105 39.999 22.1025 39.999 24.3105ZM17.999 24.3105C17.999 25.3965 22.032 26.9105 28.599 26.9105C35.166 26.9105 39.199 25.3965 39.199 24.3105C39.199 23.2245 35.166 21.7105 28.599 21.7105C22.032 21.7105 17.999 23.2245 17.999 24.3105ZM39.199 41.3105V31.6165C37.417 32.9825 32.909 33.7105 28.599 33.7105C24.289 33.7105 19.781 32.9825 17.999 31.6165V41.3105C17.999 42.3965 22.032 43.9105 28.599 43.9105C35.166 43.9105 39.199 42.3965 39.199 41.3105ZM39.199 30.3105V25.6165C37.417 26.9825 32.909 27.7105 28.599 27.7105C24.289 27.7105 19.781 26.9825 17.999 25.6165V30.3105C17.999 31.3965 22.032 32.9105 28.599 32.9105C35.166 32.9105 39.199 31.3965 39.199 30.3105Z" fill="#155197"/>
</svg>
