<svg width="41" height="42" viewBox="0 0 41 42" fill="none" xmlns="http://www.w3.org/2000/svg">
<path d="M27.1373 13.2054L23.8433 9.9104H17.9973V0.9104H6.19727V20.9104H0.197266V35.7104H12.4513L16.2253 41.7104H40.9973V9.9104H30.4313L27.1373 13.2054ZM29.5723 16.7704L17.4323 28.9104H12.5623L19.7623 21.7104L19.8803 21.5934L27.1373 14.3354L29.5723 16.7704ZM23.4323 28.9104H18.5623L30.1373 17.3354L31.6003 18.7994L31.0703 21.2714L23.4323 28.9104ZM30.7623 22.7104L29.4343 28.9104H24.5623L30.7623 22.7104ZM6.99727 1.7104H17.1973V10.7104H23.5123L26.5723 13.7704L19.4323 20.9104H6.99727V1.7104ZM6.99727 21.7104H12.6323L6.99727 27.3454V21.7104ZM6.99727 28.4764L13.7633 21.7104H18.6323L11.4323 28.9104H6.99727V28.4764ZM40.1973 10.7104V40.9104H16.6673L12.8943 34.9104H0.997266V21.7104H6.19727V29.7104H30.0803L32.4733 18.5414L27.7033 13.7704L30.7633 10.7104H40.1973Z" fill="#155197"/>
</svg>
