<svg width="38" height="49" viewBox="0 0 38 49" fill="none" xmlns="http://www.w3.org/2000/svg">
<path d="M31.7533 2.37476H6.28209C5.27422 2.42228 4.32615 2.86684 3.64507 3.61127C2.96399 4.35571 2.60529 5.33948 2.64737 6.34759V16.2092V32.0019C2.63831 32.6381 2.7782 33.2675 3.05584 33.8399C3.33349 34.4123 3.74119 34.9118 4.24636 35.2986L19.0388 46.0337L33.8313 35.2986C34.3352 34.9107 34.742 34.411 35.0196 33.8388C35.2971 33.2667 35.4377 32.6378 35.4303 32.0019V6.34759C35.4703 5.33395 35.1059 4.34595 34.4174 3.60094C33.7289 2.85593 32.7727 2.41494 31.759 2.37497L31.7533 2.37476Z" fill="#656565" fill-opacity="0.85" stroke="#656565" stroke-width="4" stroke-miterlimit="10"/>
<path d="M28.271 32.3187V7.87588C28.2724 7.77459 28.2538 7.67401 28.2163 7.57989C28.1788 7.48578 28.1232 7.39997 28.0526 7.32736C27.9819 7.25475 27.8977 7.19677 27.8046 7.15673C27.7115 7.11669 27.6115 7.09537 27.5102 7.09399H10.0974C9.99608 7.09537 9.89605 7.11669 9.803 7.15673C9.70994 7.19677 9.62569 7.25475 9.55504 7.32736C9.4844 7.39997 9.42875 7.48578 9.39127 7.57989C9.35379 7.67401 9.33522 7.77459 9.33662 7.87588V32.3187C9.33662 32.3187 9.09008 33.8895 9.51272 33.8895H28.0385C28.4541 33.8895 28.271 32.3187 28.271 32.3187ZM13.4433 17.8714H17.1696C17.2709 17.8727 17.3709 17.8941 17.464 17.9341C17.557 17.9741 17.6413 18.0321 17.7119 18.1047C17.7826 18.1773 17.8382 18.2631 17.8757 18.3573C17.9132 18.4514 17.9317 18.552 17.9303 18.6533V22.4993C17.9324 22.6011 17.9144 22.7024 17.8773 22.7972C17.8401 22.892 17.7846 22.9786 17.7139 23.0519C17.6432 23.1252 17.5588 23.1838 17.4653 23.2244C17.3719 23.2649 17.2714 23.2866 17.1696 23.2882H13.4433C13.3415 23.2866 13.2409 23.2649 13.1475 23.2244C13.0541 23.1838 12.9696 23.1252 12.8989 23.0519C12.8282 22.9786 12.7727 22.892 12.7356 22.7972C12.6984 22.7024 12.6804 22.6011 12.6825 22.4993V18.6533C12.6811 18.552 12.6997 18.4514 12.7372 18.3573C12.7747 18.2631 12.8303 18.1773 12.901 18.1047C12.9716 18.0321 13.0559 17.9741 13.1489 17.9341C13.242 17.8941 13.342 17.8727 13.4433 17.8714L13.4433 17.8714ZM12.6825 15.1946V11.3486C12.6804 11.2468 12.6984 11.1455 12.7356 11.0507C12.7727 10.9559 12.8282 10.8693 12.8989 10.796C12.9696 10.7227 13.0541 10.6641 13.1475 10.6235C13.2409 10.5829 13.3415 10.5612 13.4433 10.5597H17.1696C17.2714 10.5612 17.3719 10.5829 17.4653 10.6235C17.5588 10.6641 17.6432 10.7227 17.7139 10.796C17.7846 10.8693 17.8401 10.9559 17.8773 11.0507C17.9144 11.1455 17.9324 11.2468 17.9303 11.3486V15.1946C17.9317 15.2959 17.9132 15.3965 17.8757 15.4906C17.8382 15.5847 17.7826 15.6705 17.7119 15.7432C17.6413 15.8158 17.557 15.8737 17.464 15.9138C17.3709 15.9538 17.2709 15.9751 17.1696 15.9765H13.4433C13.342 15.9751 13.242 15.9538 13.1489 15.9138C13.0559 15.8737 12.9716 15.8158 12.901 15.7432C12.8303 15.6705 12.7747 15.5847 12.7372 15.4906C12.6997 15.3965 12.6811 15.2959 12.6825 15.1946H12.6825ZM19.6773 22.4993V18.6533C19.6756 18.449 19.7546 18.2524 19.897 18.106C20.0394 17.9597 20.2338 17.8753 20.438 17.8714H24.1713C24.3755 17.8753 24.5699 17.9597 24.7123 18.106C24.8548 18.2524 24.9337 18.449 24.9321 18.6533V22.4993C24.9352 22.7046 24.8569 22.9028 24.7144 23.0506C24.5718 23.1984 24.3766 23.2838 24.1713 23.2882H20.438C20.2327 23.2838 20.0375 23.1984 19.895 23.0506C19.7525 22.9028 19.6742 22.7046 19.6772 22.4993H19.6773ZM24.9321 15.1946C24.9337 15.3989 24.8548 15.5955 24.7123 15.7419C24.5699 15.8882 24.3755 15.9725 24.1713 15.9765H20.438C20.2338 15.9725 20.0394 15.8882 19.897 15.7419C19.7546 15.5955 19.6756 15.3989 19.6773 15.1946V11.3486C19.6742 11.1433 19.7525 10.9451 19.895 10.7973C20.0375 10.6495 20.2327 10.5641 20.438 10.5597H24.1713C24.3766 10.5641 24.5718 10.6495 24.7144 10.7973C24.8569 10.9451 24.9352 11.1433 24.9321 11.3486V15.1946Z" fill="white"/>
</svg>
