<svg width="35" height="35" viewBox="0 0 35 35" fill="none" xmlns="http://www.w3.org/2000/svg">
<path d="M17.7745 34.2429C27.1698 34.2429 34.7862 26.6265 34.7862 17.2312C34.7862 7.83589 27.1698 0.219482 17.7745 0.219482C8.3791 0.219482 0.762695 7.83589 0.762695 17.2312C0.762695 26.6265 8.3791 34.2429 17.7745 34.2429Z" fill="#DE6368"/>
<path d="M28.1535 22.4195C28.3266 22.5856 28.4641 22.7851 28.5577 23.006C28.6513 23.2269 28.6991 23.4644 28.6981 23.7043C28.7014 23.951 28.6548 24.1957 28.5613 24.424C28.4677 24.6522 28.329 24.8593 28.1535 25.0327L25.5724 27.6023C25.4013 27.7749 25.1978 27.9118 24.9735 28.0053C24.7491 28.0987 24.5085 28.1468 24.2655 28.1468C24.0225 28.1468 23.7819 28.0987 23.5576 28.0053C23.3333 27.9118 23.1297 27.7749 22.9586 27.6023L17.7747 22.4195L12.5907 27.6023C12.4239 27.7776 12.2227 27.9164 11.9996 28.0101C11.7766 28.1038 11.5366 28.1503 11.2947 28.1468C11.0494 28.1515 10.8058 28.1055 10.579 28.0119C10.3523 27.9182 10.1473 27.7788 9.97688 27.6023L7.39577 25.0327C7.2203 24.8593 7.08164 24.6522 6.98807 24.424C6.89451 24.1957 6.84796 23.951 6.85124 23.7043C6.85027 23.4644 6.89804 23.2269 6.99164 23.006C7.08525 22.7852 7.22273 22.5856 7.39577 22.4195L12.5907 17.2366L7.39577 12.0428C7.2219 11.8773 7.08386 11.6779 6.99019 11.4569C6.89653 11.2359 6.84923 10.998 6.85124 10.758C6.84801 10.5129 6.89462 10.2698 6.98823 10.0433C7.08183 9.81686 7.22048 9.61176 7.39577 9.44048L9.97688 6.85992C10.1488 6.6855 10.3541 6.54742 10.5805 6.45389C10.8068 6.36037 11.0497 6.3133 11.2947 6.3155C11.5362 6.31446 11.7755 6.36213 11.9982 6.45567C12.2208 6.54922 12.4224 6.68671 12.5907 6.85992L17.7747 12.0428L22.9586 6.85992C23.1297 6.6874 23.3333 6.55046 23.5576 6.45701C23.7819 6.36356 24.0225 6.31545 24.2655 6.31545C24.5085 6.31545 24.7491 6.36356 24.9735 6.45701C25.1978 6.55046 25.4013 6.6874 25.5724 6.85992L28.1535 9.44048C28.3288 9.61175 28.4675 9.81685 28.5611 10.0433C28.6547 10.2698 28.7013 10.5129 28.6981 10.758C28.7001 10.998 28.6528 11.2359 28.5591 11.4569C28.4655 11.6779 28.3274 11.8773 28.1535 12.0428L22.9586 17.2366L28.1535 22.4195Z" fill="#111111"/>
</svg>
