<svg width="36" height="36" viewBox="0 0 36 36" fill="none" xmlns="http://www.w3.org/2000/svg">
<circle cx="18.3847" cy="18.2314" r="17.4013" fill="#F59339"/>
<path d="M8.00628 21.9628C9.0021 21.9628 9.86446 21.6082 10.5639 20.9075C11.2651 20.2079 11.62 19.3453 11.62 18.3491C11.62 17.353 11.2653 16.4905 10.5643 15.791C9.86479 15.09 9.0023 14.7354 8.00628 14.7354C7.01026 14.7354 6.14777 15.09 5.44823 15.791C4.74728 16.4905 4.39258 17.353 4.39258 18.3491C4.39258 19.3449 4.74714 20.2072 5.44782 20.9067C6.14744 21.6079 7.01007 21.9628 8.00628 21.9628ZM18.3853 21.9628C19.3813 21.9628 20.2438 21.6081 20.9433 20.9071C21.6443 20.2076 21.999 19.3451 21.999 18.3491C21.999 17.3532 21.6444 16.4909 20.9437 15.7914C20.2441 15.0902 19.3815 14.7354 18.3853 14.7354C17.3895 14.7354 16.5271 15.0899 15.8276 15.7906C15.1264 16.4902 14.7716 17.3528 14.7716 18.3491C14.7716 19.3449 15.1261 20.2072 15.8268 20.9067C16.5264 21.6079 17.3891 21.9628 18.3853 21.9628ZM28.7643 21.9628C29.7601 21.9628 30.6225 21.6082 31.3219 20.9075C32.0232 20.2079 32.378 19.3453 32.378 18.3491C32.378 17.353 32.0233 16.4905 31.3223 15.791C30.6228 15.09 29.7603 14.7354 28.7643 14.7354C27.7685 14.7354 26.9061 15.0899 26.2066 15.7906C25.5054 16.4902 25.1506 17.3528 25.1506 18.3491C25.1506 19.3451 25.5053 20.2076 26.2062 20.9071C26.9058 21.6081 27.7683 21.9628 28.7643 21.9628Z" fill="#111111" stroke="#111111"/>
</svg>
