<svg width="38" height="49" viewBox="0 0 38 49" fill="none" xmlns="http://www.w3.org/2000/svg">
<path d="M31.6608 2.52808H6.01076C4.99581 2.57593 4.04108 3.02361 3.35522 3.77327C2.66936 4.52294 2.30815 5.51362 2.35052 6.5288V16.4597V32.3633C2.3414 33.0039 2.48226 33.6377 2.76186 34.2141C3.04145 34.7906 3.45202 35.2936 3.96074 35.683L18.8571 46.4935L33.7534 35.683C34.2609 35.2925 34.6705 34.7892 34.95 34.2131C35.2295 33.6369 35.3711 33.0036 35.3636 32.3633V6.5288C35.4038 5.50804 35.0369 4.51311 34.3436 3.76287C33.6503 3.01263 32.6873 2.56854 31.6666 2.5283L31.6608 2.52808Z" stroke="#9C9C9C" stroke-width="4" stroke-miterlimit="10"/>
<path d="M28.1544 31.675V7.06057C28.1558 6.95856 28.1371 6.85728 28.0994 6.7625C28.0616 6.66773 28.0056 6.58131 27.9345 6.5082C27.8633 6.43508 27.7785 6.37669 27.6848 6.33637C27.5911 6.29605 27.4903 6.27458 27.3883 6.27319H9.85322C9.75121 6.27458 9.65048 6.29605 9.55677 6.33637C9.46306 6.37669 9.37822 6.43508 9.30708 6.5082C9.23594 6.58131 9.1799 6.66773 9.14216 6.7625C9.10441 6.85728 9.08571 6.95856 9.08712 7.06057V31.675C9.08712 31.675 8.83885 33.2568 9.26446 33.2568H27.9203C28.3388 33.2568 28.1544 31.675 28.1544 31.675ZM13.2226 17.1262H16.9751C17.0771 17.1276 17.1778 17.1491 17.2715 17.1894C17.3652 17.2297 17.4501 17.2881 17.5212 17.3612C17.5924 17.4343 17.6484 17.5208 17.6861 17.6155C17.7239 17.7103 17.7426 17.8116 17.7412 17.9136V21.7866C17.7433 21.8892 17.7251 21.9911 17.6877 22.0866C17.6503 22.1821 17.5944 22.2693 17.5233 22.3431C17.4521 22.4169 17.367 22.476 17.2729 22.5168C17.1788 22.5577 17.0776 22.5795 16.9751 22.5811H13.2226C13.1201 22.5795 13.0189 22.5577 12.9248 22.5168C12.8307 22.476 12.7456 22.417 12.6744 22.3431C12.6032 22.2693 12.5473 22.1821 12.5099 22.0866C12.4726 21.9911 12.4544 21.8892 12.4565 21.7866V17.9136C12.4551 17.8116 12.4738 17.7103 12.5116 17.6155C12.5493 17.5208 12.6053 17.4343 12.6765 17.3612C12.7476 17.2881 12.8325 17.2297 12.9262 17.1894C13.0199 17.1491 13.1206 17.1276 13.2226 17.1262L13.2226 17.1262ZM12.4565 14.4307V10.5577C12.4544 10.4551 12.4726 10.3532 12.5099 10.2577C12.5473 10.1622 12.6032 10.075 12.6744 10.0012C12.7456 9.92735 12.8307 9.86832 12.9248 9.82748C13.0189 9.78664 13.1201 9.76479 13.2226 9.76319H16.9751C17.0776 9.76479 17.1788 9.78664 17.2729 9.82749C17.367 9.86833 17.4521 9.92736 17.5233 10.0012C17.5944 10.075 17.6503 10.1622 17.6877 10.2577C17.7251 10.3532 17.7433 10.4551 17.7412 10.5577V14.4307C17.7426 14.5327 17.7239 14.634 17.6861 14.7288C17.6484 14.8235 17.5924 14.91 17.5212 14.9831C17.4501 15.0562 17.3652 15.1146 17.2715 15.1549C17.1778 15.1952 17.0771 15.2167 16.9751 15.2181H13.2226C13.1206 15.2167 13.0199 15.1952 12.9262 15.1549C12.8325 15.1146 12.7476 15.0562 12.6765 14.9831C12.6053 14.91 12.5493 14.8235 12.5116 14.7288C12.4738 14.634 12.4551 14.5327 12.4565 14.4307H12.4565ZM19.5004 21.7866V17.9136C19.4987 17.708 19.5782 17.5099 19.7217 17.3625C19.8651 17.2151 20.0608 17.1302 20.2665 17.1262H24.026C24.2316 17.1302 24.4274 17.2151 24.5708 17.3625C24.7142 17.5099 24.7937 17.708 24.7921 17.9136V21.7866C24.7952 21.9934 24.7164 22.193 24.5728 22.3418C24.4293 22.4907 24.2327 22.5767 24.026 22.5811H20.2665C20.0597 22.5767 19.8632 22.4907 19.7196 22.3418C19.5761 22.193 19.4973 21.9934 19.5003 21.7866H19.5004ZM24.7921 14.4307C24.7937 14.6364 24.7142 14.8344 24.5708 14.9818C24.4274 15.1292 24.2316 15.2141 24.026 15.2181H20.2665C20.0608 15.2141 19.8651 15.1292 19.7217 14.9818C19.5782 14.8344 19.4987 14.6364 19.5004 14.4307V10.5577C19.4973 10.3509 19.5761 10.1513 19.7196 10.0025C19.8632 9.85366 20.0597 9.76763 20.2665 9.76319H24.026C24.2327 9.76763 24.4293 9.85366 24.5728 10.0025C24.7164 10.1513 24.7952 10.3509 24.7921 10.5577V14.4307Z" fill="#9C9C9C"/>
</svg>
