<svg width="36" height="35" viewBox="0 0 36 35" fill="none" xmlns="http://www.w3.org/2000/svg">
<path d="M17.9952 34.708C27.3905 34.708 35.0069 27.0916 35.0069 17.6963C35.0069 8.30098 27.3905 0.68457 17.9952 0.68457C8.59981 0.68457 0.983398 8.30098 0.983398 17.6963C0.983398 27.0916 8.59981 34.708 17.9952 34.708Z" fill="#FACF39"/>
<path d="M14.1596 5.61573L14.1596 5.61574L14.849 19.4033L15.0986 19.3909L14.849 19.4033C14.8881 20.1839 15.5323 20.7966 16.3137 20.7966H19.6765C20.458 20.7966 21.1022 20.1839 21.1412 19.4033L20.8915 19.3909L21.1412 19.4033L21.8306 5.61574L21.8306 5.61573C21.8725 4.77805 21.2046 4.07593 20.3659 4.07593H15.6244C14.7856 4.07593 14.1178 4.77805 14.1596 5.61573ZM17.9951 31.984C20.3692 31.984 22.3003 30.053 22.3003 27.6789C22.3003 25.3048 20.3692 23.3737 17.9951 23.3737C15.621 23.3737 13.6899 25.3048 13.6899 27.6789C13.6899 30.053 15.621 31.984 17.9951 31.984Z" fill="#111111" stroke="#111111" stroke-width="0.5"/>
</svg>
