<svg width="35" height="35" viewBox="0 0 35 35" fill="none" xmlns="http://www.w3.org/2000/svg">
<path d="M17.6762 34.7197C27.0555 34.7197 34.6589 27.1162 34.6589 17.7369C34.6589 8.3576 27.0555 0.75415 17.6762 0.75415C8.29681 0.75415 0.693359 8.3576 0.693359 17.7369C0.693359 27.1162 8.29681 34.7197 17.6762 34.7197Z" fill="#37B34A"/>
<path d="M31.2883 12.1379C31.2902 12.3705 31.2453 12.6011 31.1564 12.8162C31.0675 13.0313 30.9364 13.2264 30.7707 13.3902L17.4001 26.7146L14.889 29.2192C14.5552 29.5498 14.1039 29.7354 13.6335 29.7354C13.163 29.7354 12.7117 29.5498 12.378 29.2192L3.18146 20.0469C3.01409 19.8844 2.88182 19.6895 2.7928 19.4742C2.70378 19.2588 2.65988 19.0276 2.66382 18.7946C2.66197 18.562 2.70682 18.3314 2.79572 18.1164C2.88462 17.9013 3.01578 17.7062 3.18146 17.5424L5.69258 15.0379C5.85731 14.8742 6.05332 14.7451 6.26899 14.6583C6.48466 14.5715 6.7156 14.5288 6.94813 14.5326C7.18094 14.5267 7.41248 14.5685 7.62844 14.6554C7.8444 14.7423 8.04019 14.8725 8.20369 15.0379L13.6334 20.4754L25.7484 8.38117C25.9098 8.21224 26.1049 8.07899 26.3212 7.99005C26.5375 7.90112 26.7701 7.85847 27.0039 7.86489C27.2375 7.86054 27.4695 7.90412 27.6855 7.99294C27.9015 8.08175 28.0969 8.2139 28.2595 8.38117L30.7706 10.8857C30.938 11.0481 31.0703 11.243 31.1593 11.4584C31.2483 11.6737 31.2923 11.905 31.2883 12.1379V12.1379Z" fill="#111111"/>
</svg>
