<svg width="35" height="35" viewBox="0 0 35 35" fill="none" xmlns="http://www.w3.org/2000/svg">
<path d="M17.5201 34.9824C26.9154 34.9824 34.5318 27.366 34.5318 17.9707C34.5318 8.57539 26.9154 0.958984 17.5201 0.958984C8.12471 0.958984 0.508301 8.57539 0.508301 17.9707C0.508301 27.366 8.12471 34.9824 17.5201 34.9824Z" fill="#07BBB7"/>
<path d="M11.3989 9.35938H20.9585C23.0405 9.35938 24.5978 9.85449 25.6304 10.8447C26.6714 11.835 27.1919 13.2441 27.1919 15.0723C27.1919 16.9512 26.6248 18.4196 25.4907 19.4775C24.3651 20.5355 22.6427 21.0645 20.3237 21.0645H17.1753V27.9707H11.3989V9.35938ZM17.1753 17.2939H18.5845C19.6932 17.2939 20.4718 17.1035 20.9204 16.7227C21.369 16.3333 21.5933 15.8382 21.5933 15.2373C21.5933 14.6533 21.3986 14.1582 21.0093 13.752C20.62 13.3457 19.8879 13.1426 18.813 13.1426H17.1753V17.2939Z" fill="#111111"/>
</svg>
