<svg width="35" height="35" viewBox="0 0 35 35" fill="none" xmlns="http://www.w3.org/2000/svg">
<path d="M17.5201 34.8701C26.9154 34.8701 34.5318 27.2537 34.5318 17.8584C34.5318 8.46309 26.9154 0.84668 17.5201 0.84668C8.12471 0.84668 0.508301 8.46309 0.508301 17.8584C0.508301 27.2537 8.12471 34.8701 17.5201 34.8701Z" fill="#37B34A"/>
<path d="M8.88232 26.8208V8.20947H18.4673C20.2446 8.20947 21.603 8.36182 22.5425 8.6665C23.4819 8.97119 24.2394 9.53825 24.8149 10.3677C25.3905 11.1886 25.6782 12.1916 25.6782 13.3765C25.6782 14.409 25.4582 15.3019 25.0181 16.0552C24.578 16.8 23.9728 17.4051 23.2026 17.8706C22.7118 18.1668 22.0389 18.4123 21.1841 18.6069C21.8696 18.8354 22.369 19.064 22.6821 19.2925C22.8937 19.4448 23.1984 19.7707 23.5962 20.27C24.0024 20.7694 24.2733 21.1545 24.4087 21.4253L27.189 26.8208H20.689L17.6167 21.1333C17.2274 20.397 16.8804 19.9188 16.5757 19.6987C16.161 19.411 15.6912 19.2671 15.1665 19.2671H14.6587V26.8208H8.88232ZM14.6587 15.7505H17.0835C17.3459 15.7505 17.8537 15.6659 18.6069 15.4966C18.9878 15.4204 19.2967 15.2257 19.5337 14.9126C19.7791 14.5994 19.9019 14.2397 19.9019 13.8335C19.9019 13.2326 19.7114 12.7713 19.3306 12.4497C18.9497 12.1281 18.2345 11.9673 17.1851 11.9673H14.6587V15.7505Z" fill="#111111"/>
</svg>
