<svg width="63" height="55" viewBox="0 0 63 55" fill="none" xmlns="http://www.w3.org/2000/svg">
<path d="M14.0983 14.3102C14.0983 14.0135 14.0103 13.7235 13.8455 13.4768C13.6807 13.2302 13.4464 13.0379 13.1723 12.9244C12.8982 12.8109 12.5966 12.7811 12.3057 12.839C12.0147 12.8969 11.7474 13.0398 11.5377 13.2495C11.3279 13.4593 11.185 13.7266 11.1271 14.0176C11.0693 14.3085 11.099 14.6101 11.2125 14.8842C11.326 15.1583 11.5183 15.3926 11.765 15.5574C12.0116 15.7222 12.3016 15.8102 12.5983 15.8102C12.996 15.8097 13.3772 15.6515 13.6584 15.3703C13.9396 15.0891 14.0978 14.7079 14.0983 14.3102ZM11.8983 14.3102C11.8983 14.1718 11.9394 14.0364 12.0163 13.9213C12.0932 13.8062 12.2025 13.7165 12.3304 13.6635C12.4583 13.6105 12.5991 13.5966 12.7349 13.6236C12.8707 13.6507 12.9954 13.7173 13.0933 13.8152C13.1912 13.9131 13.2579 14.0379 13.2849 14.1736C13.3119 14.3094 13.298 14.4502 13.245 14.5781C13.192 14.706 13.1023 14.8153 12.9872 14.8922C12.8721 14.9691 12.7368 15.0102 12.5983 15.0102C12.4127 15.0102 12.2346 14.9364 12.1033 14.8052C11.9721 14.6739 11.8983 14.4959 11.8983 14.3102ZM56.9583 28.7432C52.9823 26.3472 52.0003 23.9852 50.8673 21.2592C49.6526 17.8407 47.4875 14.8398 44.6263 12.6092L58.3233 1.0402L57.8063 0.429199L43.3603 12.6302L43.7503 12.9342C44.2093 13.2902 44.6253 13.6412 45.0143 13.9872L41.7663 16.3332C41.2486 16.7089 40.625 16.9105 39.9853 16.9092H34.0903C32.496 16.9089 30.9329 17.3513 29.5753 18.1872L23.6733 21.8192L18.1923 16.3372L18.9863 15.5392C19.0948 15.4299 19.1806 15.3003 19.2387 15.1577C19.2968 15.0151 19.3261 14.8625 19.3249 14.7085C19.3237 14.5545 19.292 14.4023 19.2316 14.2607C19.1713 14.119 19.0835 13.9907 18.9733 13.8832L6.35831 1.5782L5.79831 2.1502L18.4143 14.4562C18.4489 14.49 18.4765 14.5303 18.4954 14.5747C18.5144 14.6192 18.5243 14.667 18.5247 14.7154C18.5251 14.7637 18.5159 14.8117 18.4976 14.8564C18.4794 14.9012 18.4524 14.9419 18.4183 14.9762L4.45031 29.0092C4.38218 29.0773 4.28999 29.116 4.19363 29.1167C4.09728 29.1175 4.00449 29.0803 3.93531 29.0132L1.37831 26.5232L0.820312 27.0972L3.37931 29.5852C3.59981 29.7985 3.89523 29.9166 4.20197 29.9142C4.50871 29.9117 4.80223 29.7889 5.01931 29.5722L6.34431 28.2402L10.7923 32.2842C10.9203 32.4009 11.0226 32.5429 11.0927 32.7013C11.1628 32.8597 11.1991 33.031 11.1993 33.2042V36.4842C11.1981 37.0102 11.4006 37.5162 11.7643 37.8962L12.6783 38.8542L10.9083 40.3102L10.8883 40.3282C10.7 40.5062 10.553 40.7233 10.4576 40.9641C10.3621 41.205 10.3206 41.4638 10.3358 41.7225C10.3511 41.9811 10.4227 42.2333 10.5458 42.4613C10.6689 42.6893 10.8404 42.8876 11.0483 43.0422L24.6943 53.2802C25.2978 53.7518 26.0405 54.0102 26.8063 54.0152C27.917 53.9491 28.986 53.5683 29.8883 52.9172L30.2513 52.6122L32.2413 54.2042C32.8256 54.697 33.565 54.9679 34.3293 54.9692C34.9438 54.9498 35.5499 54.8211 36.1193 54.5892C36.5636 54.4265 36.9602 54.1554 37.2731 53.8006C37.5861 53.4457 37.8054 53.0183 37.9113 52.5572L38.8513 52.8082C39.6003 52.9325 40.3692 52.7936 41.0273 52.4152L41.6403 51.9972C41.923 51.8032 42.1572 51.5466 42.3247 51.2475C42.4923 50.9483 42.5886 50.6146 42.6063 50.2722L42.6193 50.0012L42.8263 50.0412C43.6598 50.2019 44.5229 50.0253 45.2263 49.5502L46.5233 48.6652C46.82 48.4621 47.0641 48.1915 47.2357 47.8756C47.4073 47.5597 47.5014 47.2076 47.5103 46.8482L47.5133 46.7222L47.5813 46.6502C48.0376 46.747 48.5087 46.7505 48.9664 46.6605C49.424 46.5704 49.8587 46.3887 50.2443 46.1262L50.5413 45.9242C50.8798 45.6932 51.1635 45.3908 51.3725 45.0383C51.5816 44.6859 51.7109 44.2919 51.7513 43.8841C51.7917 43.4763 51.7423 43.0646 51.6065 42.678C51.4707 42.2914 51.2518 41.9392 50.9653 41.6462L47.5453 38.1492L50.0493 35.8552C50.3481 35.5811 50.5867 35.2479 50.75 34.8768C50.9134 34.5057 50.9979 34.1047 50.9983 33.6992V30.5492C50.9993 30.0727 51.1118 29.6031 51.3268 29.1778C51.5417 28.7526 51.8532 28.3835 52.2363 28.1002L53.5363 27.1432C54.5156 28.0847 55.6079 28.9009 56.7883 29.5732L57.0233 29.7102L62.6773 25.2732L62.1823 24.6432L56.9583 28.7432ZM11.5263 42.4012C11.4126 42.3171 11.3186 42.2092 11.2508 42.0851C11.183 41.9609 11.143 41.8235 11.1337 41.6824C11.1244 41.5413 11.1459 41.3998 11.1968 41.2678C11.2477 41.1359 11.3267 41.0166 11.4283 40.9182L14.1693 38.6612C14.37 38.4958 14.6118 38.3881 14.869 38.3495C15.1261 38.311 15.3889 38.343 15.6293 38.4422L17.8453 39.3562C18.1344 39.451 18.3916 39.6241 18.5883 39.8562C18.7214 40.1721 18.7812 40.5139 18.7633 40.8562L14.5073 44.6382L11.5263 42.4012ZM15.1603 45.1282L19.3733 41.3842L21.0163 40.9792C21.2199 40.9288 21.434 40.9414 21.6303 41.0152L23.5523 41.7262C23.7199 41.7788 23.865 41.8862 23.9643 42.0312C24.0746 42.2607 24.1215 42.5155 24.1003 42.7692L18.9003 47.8412L19.2323 48.1832L15.1603 45.1282ZM19.4943 48.3782L24.7173 43.2862C25.1507 43.115 25.6034 42.9971 26.0653 42.9352C26.5028 42.9441 26.9317 43.0586 27.3153 43.2692L28.9203 43.9322C29.0243 43.9741 29.1178 44.0382 29.1943 44.1201C29.2709 44.202 29.3285 44.2997 29.3633 44.4062L29.4733 45.2732L23.4183 51.3232L19.4943 48.3782ZM29.4153 52.2742C27.6533 53.3942 26.3453 53.5062 25.1733 52.6392L24.0643 51.8082L30.0843 45.7942L31.7223 45.5082C32.1107 45.3976 32.525 45.4212 32.8983 45.5752L33.5063 45.8252C33.7588 45.9295 33.9798 46.0977 34.1475 46.3134C34.3151 46.5291 34.4237 46.7847 34.4625 47.0552C34.5012 47.3256 34.4688 47.6014 34.3685 47.8555C34.2682 48.1096 34.1034 48.3332 33.8903 48.5042L29.4153 52.2742ZM37.1913 52.0372C37.1576 52.4338 37.0131 52.813 36.7745 53.1316C36.5358 53.4502 36.2125 53.6953 35.8413 53.8392C35.355 54.1009 34.8031 54.2156 34.2527 54.1695C33.7024 54.1233 33.1773 53.9182 32.7413 53.5792L30.8753 52.0862L34.1973 49.2912L37.1953 51.9712L37.1913 52.0372ZM50.3933 42.2062C50.5981 42.4155 50.7546 42.6672 50.8516 42.9435C50.9487 43.2198 50.9841 43.514 50.9552 43.8054C50.9263 44.0968 50.8339 44.3784 50.6845 44.6302C50.535 44.8821 50.3322 45.0982 50.0903 45.2632L49.7933 45.4652C49.4372 45.7072 49.0276 45.859 48.5998 45.9078C48.172 45.9566 47.7388 45.9008 47.3373 45.7452L38.7073 37.5202L38.1563 38.1002L46.7233 46.2662L46.7103 46.8292C46.7046 47.0616 46.6438 47.2893 46.5328 47.4935C46.4219 47.6978 46.2641 47.8728 46.0723 48.0042L44.7763 48.8892C44.5162 49.0664 44.2235 49.19 43.9152 49.253C43.6068 49.316 43.2891 49.3171 42.9803 49.2562L42.6373 49.1892L33.3773 40.1892L32.8193 40.7632L41.8413 49.5312L41.8073 50.2332C41.7961 50.4522 41.7345 50.6657 41.6273 50.857C41.5201 51.0483 41.3702 51.2123 41.1893 51.3362L40.5763 51.7542C40.0922 52.0144 39.5363 52.1092 38.9933 52.0242L38.2213 51.8142L34.7713 48.7312C34.9975 48.4442 35.1539 48.1085 35.2283 47.7508C35.3027 47.393 35.2929 47.0228 35.1999 46.6694C35.1068 46.316 34.9329 45.9891 34.692 45.7143C34.451 45.4396 34.1495 45.2246 33.8113 45.0862L33.2043 44.8362C32.6784 44.6166 32.0941 44.5789 31.5443 44.7292L30.2703 44.9502L30.2333 44.9122L30.1483 44.2582C30.088 44.0211 29.9733 43.8013 29.8133 43.6162C29.6532 43.4312 29.4523 43.286 29.2263 43.1922L27.6673 42.5522C27.1623 42.2729 26.5933 42.1299 26.0163 42.1372C25.6321 42.1784 25.2533 42.2602 24.8863 42.3812C24.8651 42.092 24.7724 41.8126 24.6163 41.5682C24.4186 41.2663 24.1156 41.0488 23.7663 40.9582L21.9103 40.2662C21.5633 40.1362 21.185 40.1142 20.8253 40.2032L19.5843 40.5082L19.5463 40.4652C19.5324 40.0997 19.4342 39.7424 19.2593 39.4212C18.9707 39.0432 18.5758 38.7598 18.1253 38.6072L15.9353 37.7032C15.561 37.5478 15.1514 37.4973 14.7506 37.5572C14.3498 37.6171 13.9728 37.7851 13.6603 38.0432L13.2963 38.3432L12.3423 37.3432C12.1211 37.1124 11.9978 36.8049 11.9983 36.4852V33.2042C11.998 32.9194 11.9383 32.6378 11.8229 32.3775C11.7075 32.1171 11.5391 31.8837 11.3283 31.6922L6.90831 27.6722L17.6283 16.9052L22.9733 22.2512L13.9323 27.8152L14.0623 28.1302C14.0893 28.1942 14.7523 29.7102 17.7643 29.7102C19.4979 29.7454 21.202 29.2575 22.6543 28.3102L26.5533 25.7102H32.6823C33.1825 25.7115 33.6775 25.812 34.1386 26.006C34.5997 26.1999 35.0176 26.4835 35.3683 26.8402L50.3933 42.2062ZM51.7613 27.4562C51.2774 27.8142 50.8841 28.2805 50.6127 28.8177C50.3412 29.355 50.1993 29.9483 50.1983 30.5502V33.7002C50.1978 33.9947 50.1363 34.286 50.0175 34.5555C49.8987 34.8251 49.7254 35.0671 49.5083 35.2662L46.9863 37.5762L35.9413 26.2812C35.5156 25.8485 35.0083 25.5045 34.4487 25.2694C33.8891 25.0342 33.2883 24.9124 32.6813 24.9112H26.3113L22.1923 27.6562C20.8712 28.4993 19.3313 28.9354 17.7643 28.9102C16.7749 29.009 15.7863 28.7144 15.0123 28.0902L29.9943 18.8702C31.2258 18.1116 32.6439 17.71 34.0903 17.7102H39.9853C40.7935 17.7118 41.5813 17.4569 42.2353 16.9822L45.6143 14.5422C47.6415 16.5035 49.1869 18.9076 50.1293 21.5662C50.7749 23.3863 51.7404 25.0765 52.9803 26.5572L51.7613 27.4562Z" fill="#062E61"/>
</svg>
